<svg width="75" height="75" viewBox="0 0 75 75" fill="none" xmlns="http://www.w3.org/2000/svg">
<path d="M65.9238 37.4782C65.9238 53.1991 53.1994 65.9235 37.4785 65.9235C21.7576 65.9235 9.0332 53.1991 9.0332 37.4782C9.0332 21.7573 21.7576 9.03296 37.4785 9.03296C53.1994 9.03296 65.9238 21.8008 65.9238 37.4782Z" fill="#E6ECFF"/>
<path d="M74.8263 34.2646C74.7394 33.4395 74.2183 32.7446 73.4366 32.4841L70.4835 31.3115C69.6149 26.7082 67.8344 22.3654 65.1853 18.5003L66.4447 15.5906C66.7921 14.8523 66.6618 13.9838 66.1407 13.3324C64.751 11.6821 63.231 10.1621 61.6242 8.81587C60.9728 8.29473 60.1042 8.16445 59.3659 8.51187L56.4563 9.77128C52.5912 7.12218 48.2484 5.34163 43.645 4.47307L42.4725 1.51998C42.1685 0.781702 41.4737 0.21714 40.6919 0.130284C38.564 -0.0434279 36.3926 -0.0434279 34.2646 0.130284C33.4395 0.21714 32.7446 0.738275 32.4841 1.51998L31.3115 4.47307C26.7082 5.34163 22.3654 7.12218 18.5003 9.77128L15.5906 8.51187C14.8523 8.16445 13.9838 8.29473 13.3324 8.81587C11.7255 10.2056 10.2056 11.7255 8.81587 13.3758C8.29473 14.0272 8.16445 14.8958 8.51187 15.634L9.77128 18.5437C7.12218 22.4088 5.34163 26.7516 4.47307 31.355L1.51998 32.5275C0.781702 32.8315 0.21714 33.5263 0.130284 34.3081C-0.0434279 36.436 -0.0434279 38.6074 0.130284 40.7354C0.21714 41.5605 0.738274 42.2554 1.51998 42.5159L4.47307 43.6885C5.34163 48.2918 7.12218 52.6346 9.77128 56.4997L8.51187 59.4094C8.16445 60.1477 8.29473 61.0162 8.81587 61.6676C10.2056 63.3179 11.7255 64.8379 13.3324 66.1841C13.9838 66.7053 14.8523 66.8356 15.5906 66.4881L18.5003 65.2287C22.3654 67.8778 26.7082 69.6584 31.3115 70.5269L32.4841 73.48C32.7881 74.2183 33.4829 74.7829 34.2646 74.8697C36.3926 75.0434 38.564 75.0434 40.6919 74.8697C41.5171 74.7829 42.2119 74.2617 42.4725 73.48L43.645 70.5269C48.2484 69.6584 52.5912 67.8778 56.4563 65.2287L59.3659 66.4881C60.1042 66.8356 60.9728 66.7053 61.6242 66.1841C63.2745 64.7944 64.7944 63.2745 66.1407 61.6676C66.6618 61.0162 66.7921 60.1477 66.4447 59.4094L65.1853 56.4997C67.8344 52.6346 69.6149 48.2918 70.4835 43.6885L73.4366 42.5159C74.1749 42.2119 74.7394 41.5171 74.8263 40.7354C75.0434 38.564 75.0434 36.436 74.8263 34.2646ZM37.4783 65.9236C25.9699 65.9236 15.5906 58.9751 11.2044 48.3787C6.81818 37.7389 9.25014 25.5356 17.3712 17.3712C25.4922 9.25014 37.7389 6.81818 48.3787 11.2044C59.0185 15.5906 65.9236 25.9699 65.9236 37.4783C65.9236 53.1992 53.1992 65.9236 37.4783 65.9236Z" fill="#D0DBF7"/>
<path d="M37.4785 67.2265C25.449 67.2265 14.592 59.974 9.98865 48.8565C5.38529 37.7389 7.94753 24.9711 16.416 16.4592C24.9278 7.94736 37.6957 5.42854 48.8132 10.0319C59.9307 14.6353 67.1832 25.4922 67.1832 37.5218C67.2266 53.8941 53.8943 67.2265 37.4785 67.2265ZM37.4785 10.3359C26.4913 10.3359 16.5897 16.9369 12.3772 27.0991C8.16467 37.2612 10.5098 48.8999 18.2834 56.6735C26.057 64.4471 37.7391 66.7488 47.8578 62.5797C58.0199 58.3672 64.621 48.4656 64.621 37.4783C64.621 22.4957 52.4611 10.3793 37.4785 10.3359Z" fill="#BAC7E5"/>
<path d="M20.3242 37.1308C20.8019 36.6096 20.8019 35.8279 20.3242 35.3068C19.8464 34.8291 19.0213 34.7857 18.5002 35.3068L18.2396 35.5674C19.1082 26.7081 25.9698 19.5859 34.7856 18.2831C43.6015 17.0237 52.1568 21.931 55.5008 30.2257C55.631 30.5297 55.8916 30.7903 56.1956 30.9206C56.4996 31.0509 56.847 31.0509 57.1944 30.9206C57.4984 30.7903 57.759 30.5297 57.8893 30.2257C58.0196 29.9217 58.0196 29.5743 57.8893 29.2269C54.0676 19.7596 44.2529 14.2008 34.1777 15.7642C24.1024 17.3277 16.4156 25.579 15.6339 35.7411L15.1562 35.2634C14.6351 34.7857 13.8534 34.7857 13.3323 35.2634C12.8546 35.7411 12.8111 36.5662 13.3323 37.0874L15.9379 39.693C16.4591 40.2142 17.2408 40.2142 17.7619 39.693L20.3242 37.1308Z" fill="#4C7AF0"/>
<path d="M61.6678 37.8691L59.0621 35.2634C58.541 34.7423 57.7593 34.7423 57.2382 35.2634L54.6325 37.8691C54.1548 38.3902 54.1548 39.1719 54.6325 39.6931C55.1102 40.1708 55.9353 40.2142 56.4565 39.6931L56.717 39.4325C55.8485 48.2918 48.9869 55.414 40.171 56.7168C31.3551 57.9762 22.7998 53.0689 19.4559 44.7741C19.1953 44.1227 18.4136 43.7753 17.7622 44.0793C17.1108 44.3398 16.7633 45.1215 17.0673 45.773C20.889 55.2403 30.7037 60.799 40.779 59.2356C50.8543 57.6722 58.541 49.4209 59.3227 39.2588L59.8004 39.7365C60.3215 40.2142 61.1032 40.2142 61.6244 39.7365C62.1455 39.1719 62.1455 38.3902 61.6678 37.8691Z" fill="#376CFB"/>
</svg>
