<svg width="91" height="71" viewBox="0 0 91 71" fill="none" xmlns="http://www.w3.org/2000/svg">
<path d="M51.2439 40.4262L49.3257 43.3341L64.9601 53.7679L66.8784 50.86L51.2439 40.4262Z" fill="#DEDEDE"/>
<path d="M54.7143 41.2072C55.1947 41.5279 55.3268 42.1862 55.008 42.6693L52.8391 45.9574C52.5202 46.4405 51.8658 46.5735 51.3854 46.2528L45.8435 42.5543C45.3632 42.2336 45.231 41.5754 45.5499 41.0922L47.7188 37.8041C48.0376 37.321 48.6921 37.1881 49.1724 37.5088L54.7143 41.2072Z" fill="#699BFF"/>
<path d="M41.7523 4.41684C53.8671 12.5015 57.1719 28.9325 49.1338 41.1165C41.0958 53.3016 24.7596 56.6255 12.6448 48.5409C0.531129 40.4572 -2.7747 24.0252 5.26334 11.8401C13.3014 -0.342837 29.6386 -3.6668 41.7523 4.41684Z" fill="#699BFF"/>
<path d="M39.3099 8.12057C49.3899 14.8476 52.141 28.5211 45.4527 38.6597C38.7645 48.7993 25.1699 51.5652 15.0888 44.8382C5.00764 38.1111 2.25767 24.4366 8.94591 14.297C15.6341 4.15839 29.2288 1.39352 39.3099 8.12057Z" fill="white"/>
<path d="M38.7035 9.03936C48.2801 15.4299 50.8927 28.4188 44.539 38.051C38.1854 47.6832 25.2714 50.3109 15.6948 43.9204C6.11816 37.5299 3.50559 24.541 9.85925 14.9077C16.2129 5.27551 29.1279 2.64778 38.7035 9.03936Z" fill="#D7E9FF"/>
<mask id="mask0_106_889" style="mask-type:luminance" maskUnits="userSpaceOnUse" x="6" y="5" width="43" height="43">
<path d="M38.7035 9.03936C48.2801 15.4299 50.8927 28.4188 44.539 38.051C38.1854 47.6832 25.2714 50.3109 15.6948 43.9204C6.11816 37.5299 3.50559 24.541 9.85925 14.9077C16.2129 5.27551 29.1279 2.64778 38.7035 9.03936Z" fill="white"/>
</mask>
<g mask="url(#mask0_106_889)">
<path d="M37.3621 47.5946L27.839 52.3859L7.66309 11.82L17.1873 7.02869L37.3621 47.5946Z" fill="url(#paint0_linear_106_889)"/>
</g>
<mask id="mask1_106_889" style="mask-type:luminance" maskUnits="userSpaceOnUse" x="6" y="5" width="43" height="43">
<path d="M38.7035 9.03936C48.2801 15.4299 50.8927 28.4188 44.539 38.051C38.1854 47.6832 25.2714 50.3109 15.6948 43.9204C6.11816 37.5299 3.50559 24.541 9.85925 14.9077C16.2129 5.27551 29.1279 2.64778 38.7035 9.03936Z" fill="white"/>
</mask>
<g mask="url(#mask1_106_889)">
<path d="M45.0161 43.7442L40.2534 46.1399L20.0786 5.574L24.8402 3.17834L45.0161 43.7442Z" fill="url(#paint1_linear_106_889)"/>
</g>
<path d="M65.0403 46.9104L60.6235 53.6069L86.5778 70.9246L90.9946 64.228L65.0403 46.9104Z" fill="#699BFF"/>
<defs>
<linearGradient id="paint0_linear_106_889" x1="12.2903" y1="10.6833" x2="26.3558" y2="37.2614" gradientUnits="userSpaceOnUse">
<stop stop-color="white"/>
<stop offset="1" stop-color="white"/>
</linearGradient>
<linearGradient id="paint1_linear_106_889" x1="22.2135" y1="5.43109" x2="36.2793" y2="32.0098" gradientUnits="userSpaceOnUse">
<stop stop-color="white"/>
<stop offset="1" stop-color="white"/>
</linearGradient>
</defs>
</svg>
