<svg width="28" height="27" viewBox="0 0 28 27" fill="none" xmlns="http://www.w3.org/2000/svg">
<path d="M14.0552 26.1009C21.2149 26.1009 27.0275 20.3338 27.0275 13.2094C27.0275 6.08492 21.2149 0.317871 14.0552 0.317871C6.89556 0.317871 1.08301 6.08492 1.08301 13.2094C1.08301 20.3338 6.89556 26.1009 14.0552 26.1009Z" stroke="#555555" stroke-width="1.5" stroke-miterlimit="10"/>
<path d="M4.05518 27.0065L6.61073 23.3088" stroke="#555555" stroke-width="1.5" stroke-miterlimit="10"/>
<path d="M24.0552 27.0065L21.5552 23.3088" stroke="#555555" stroke-width="1.5" stroke-miterlimit="10"/>
<mask id="path-4-outside-1_106_991" maskUnits="userSpaceOnUse" x="-1.61133" y="-1.81519" width="12" height="12" fill="black">
<rect fill="white" x="-1.61133" y="-1.81519" width="12" height="12"/>
<path d="M2.61089 8.07679C1.27756 7.35934 0.388672 5.97962 0.388672 4.37915C0.388672 2.06123 2.27756 0.184814 4.61089 0.184814C6.11089 0.184814 7.38867 0.957456 8.16645 2.06123"/>
</mask>
<path d="M3.32166 6.75588C2.45129 6.28754 1.88867 5.40188 1.88867 4.37915H-1.11133C-1.11133 6.55737 0.103834 8.43114 1.90012 9.3977L3.32166 6.75588ZM1.88867 4.37915C1.88867 2.89901 3.0966 1.68481 4.61089 1.68481V-1.31519C1.45852 -1.31519 -1.11133 1.22345 -1.11133 4.37915H1.88867ZM4.61089 1.68481C5.57264 1.68481 6.41314 2.17715 6.94029 2.92525L9.39261 1.19721C8.3642 -0.262241 6.64914 -1.31519 4.61089 -1.31519V1.68481Z" fill="#555555" mask="url(#path-4-outside-1_106_991)"/>
<mask id="path-6-outside-2_106_991" maskUnits="userSpaceOnUse" x="17.9443" y="-1.81519" width="12" height="12" fill="black">
<rect fill="white" x="17.9443" y="-1.81519" width="12" height="12"/>
<path d="M25.4999 8.07679C26.8332 7.35934 27.7221 5.97962 27.7221 4.37915C27.7221 2.06123 25.8332 0.184814 23.4999 0.184814C21.9999 0.184814 20.7221 0.957456 19.9443 2.06123"/>
</mask>
<path d="M26.2107 9.3977C28.0069 8.43114 29.2221 6.55737 29.2221 4.37915H26.2221C26.2221 5.40188 25.6595 6.28754 24.7891 6.75588L26.2107 9.3977ZM29.2221 4.37915C29.2221 1.22345 26.6523 -1.31519 23.4999 -1.31519V1.68481C25.0142 1.68481 26.2221 2.89901 26.2221 4.37915H29.2221ZM23.4999 -1.31519C21.4616 -1.31519 19.7466 -0.26224 18.7182 1.19721L21.1705 2.92525C21.6976 2.17715 22.5381 1.68481 23.4999 1.68481V-1.31519Z" fill="#555555" mask="url(#path-6-outside-2_106_991)"/>
<path d="M14 5.64844V13.0989H18.1667" stroke="#555555" stroke-width="1.5"/>
</svg>
