<svg width="82" height="75" viewBox="0 0 82 75" fill="none" xmlns="http://www.w3.org/2000/svg">
<path d="M27.1521 22.8516C25.5205 20.173 24.6419 17.1177 24.6001 14.0206C24.6001 13.1417 25.5623 12.5977 26.3154 13.058C27.8634 14.0206 29.6623 14.5229 31.5032 14.5647C34.3899 14.481 37.193 15.3599 39.494 17.0759L39.6195 25.1953L27.1521 22.8516Z" fill="#4294FF"/>
<path d="M43.9285 23.8141C46.0203 22.8933 48.2795 22.4329 50.5805 22.4748C58.8642 22.4748 65.5999 26.5763 65.5999 36.1606C65.5999 49.1349 58.7805 63.4904 46.4805 63.4904C44.4723 63.5323 42.5479 62.8626 40.9999 61.607C39.4519 62.8626 37.5275 63.5323 35.5193 63.4904C23.2193 63.4904 16.3999 49.1349 16.3999 36.1606C16.3999 26.5763 23.1356 22.4748 31.4193 22.4748C33.8458 22.4748 36.1887 22.977 38.406 23.9815L43.9285 23.8141Z" fill="#1F56E5"/>
<path d="M40.9997 30.678C39.4935 30.678 38.2803 29.4643 38.2803 27.9576C38.2803 14.8996 42.6731 10.1284 43.1752 9.62612C44.2211 8.53795 45.9782 8.53795 47.0242 9.58427C48.1119 10.6306 48.1119 12.3884 47.066 13.4347C46.9405 13.6021 43.719 17.4107 43.719 27.9576C43.719 29.4224 42.5058 30.678 40.9997 30.678Z" fill="#4C7AF0"/>
<path d="M0 0V25.4464H5.64796V5.65011H25.4367V1.42299V0H0Z" fill="#D0DBF7"/>
<path d="M56.5635 0V1.42299V5.65011H76.3523V25.4464H82.0002V0H56.5635Z" fill="#BAC7E5"/>
<path d="M82.0002 74.9999V49.5535H76.3523V69.3498H56.5635V73.5769V74.9999H82.0002Z" fill="#D0DBF7"/>
<path d="M25.4367 74.9999V73.5769V69.3498H5.64796V49.5535H0V74.9999H25.4367Z" fill="#BAC7E5"/>
</svg>
