<svg width="82" height="84" viewBox="0 0 82 84" fill="none" xmlns="http://www.w3.org/2000/svg">
<path d="M26.6469 25.775C28.2939 25.775 29.941 26.0114 31.5881 26.2479C34.6469 26.7208 40.9998 26.9573 44.0586 20.3362C46.8822 13.9516 50.6469 2.60116 63.5881 0.472959C63.5881 0.472959 74.1763 -0.236442 77.4704 4.4929C77.4704 4.4929 80.5292 7.80344 78.1763 12.2963C76.9998 14.4245 75.1175 15.8433 72.7645 16.5527C68.0586 17.9715 57.941 21.755 53.7057 26.7208C53.7057 26.7208 50.8822 30.7408 54.8822 32.1596C54.8822 32.1596 79.5881 43.0371 80.9998 62.4274C81.2351 64.7921 80.5292 67.1567 79.1175 69.2849C77.4704 71.4131 73.4704 71.8861 69.7057 70.4673C67.3528 69.5214 64.9998 67.1567 63.8234 64.7921C60.0587 57.9345 50.4116 44.6923 44.5292 40.4359C44.5292 40.4359 42.8822 38.7807 42.6469 41.8547C42.6469 41.8547 48.0587 73.3049 35.5881 82.2906C35.5881 82.2906 28.9998 87.2564 26.4116 78.7436C26.4116 78.7436 23.3528 69.2849 27.5881 51.077C27.5881 51.077 28.7645 43.51 29.7057 37.5983C29.7057 37.5983 29.941 34.2878 26.4116 36.6524C26.4116 36.6524 20.2939 39.0171 12.0587 51.7864C11.5881 52.0228 10.4116 52.7322 9.23512 52.9687C7.11748 53.4416 3.82336 53.4416 2.1763 49.1852C2.1763 49.1852 -3.70605 39.963 10.4116 29.5584C11.8234 28.3761 13.7057 27.6667 15.3528 27.1938C17.941 26.4844 21.7057 25.775 26.6469 25.775Z" fill="#EEF3FA"/>
<path d="M37.9411 6.14815C40.7647 14.661 38.4117 17.4986 35.8235 18.6809C33.2353 19.8633 29 18.4445 25 14.8974C21.7059 12.0598 19.5882 5.43875 26.1764 1.65528C32.0588 -1.89173 36.2941 0.945874 37.9411 6.14815Z" fill="#EEF3FA"/>
</svg>
