<svg width="58" height="43" viewBox="0 0 58 43" fill="none" xmlns="http://www.w3.org/2000/svg">
<path d="M5.97324 36.325C5.97324 39.5742 8.59192 42.2225 11.8093 42.2225C15.0267 42.2225 17.6454 39.5742 17.6454 36.325C17.6454 33.0757 15.0267 30.4275 11.8093 30.4275C8.59192 30.4275 5.97324 33.0757 5.97324 36.325ZM7.55266 36.3366C7.55266 33.9626 9.46306 32.0333 11.8093 32.0333C14.1551 32.0333 16.0546 33.9622 16.066 36.3369C16.0658 38.7108 14.1555 40.6399 11.8093 40.6399C9.46306 40.6399 7.55266 38.7106 7.55266 36.3366Z" fill="white" stroke="white" stroke-width="0.2"/>
<path d="M40.2745 36.325C40.2745 39.5742 42.8932 42.2225 46.1106 42.2225C49.328 42.2225 51.9466 39.5742 51.9466 36.325C51.9466 33.0757 49.328 30.4275 46.1106 30.4275C42.8932 30.4275 40.2745 33.0757 40.2745 36.325ZM41.8539 36.3366C41.8539 33.9626 43.7643 32.0333 46.1106 32.0333C48.4568 32.0333 50.3672 33.9626 50.3672 36.3366C50.3672 38.7106 48.4568 40.6399 46.1106 40.6399C43.7643 40.6399 41.8539 38.7106 41.8539 36.3366Z" fill="white" stroke="white" stroke-width="0.2"/>
<path d="M9.53672 36.3249C9.53672 37.5874 10.5576 38.6207 11.8093 38.6207C13.061 38.6207 14.0819 37.5874 14.0819 36.3249C14.0819 35.0624 13.061 34.029 11.8093 34.029C10.5576 34.029 9.53672 35.0624 9.53672 36.3249ZM11.1161 36.3249C11.1161 35.9376 11.4287 35.6232 11.8093 35.6232C12.1899 35.6232 12.5025 35.9376 12.5025 36.3249C12.5025 36.7122 12.1899 37.0265 11.8093 37.0265C11.4287 37.0265 11.1161 36.7122 11.1161 36.3249Z" fill="white" stroke="white" stroke-width="0.2"/>
<path d="M43.838 36.3249C43.838 37.5874 44.8588 38.6207 46.1106 38.6207C47.3623 38.6207 48.3831 37.5874 48.3831 36.3249C48.3831 35.0624 47.3623 34.029 46.1106 34.029C44.8588 34.029 43.838 35.0624 43.838 36.3249ZM45.4174 36.3249C45.4174 35.9376 45.73 35.6232 46.1106 35.6232C46.4912 35.6232 46.8037 35.9376 46.8037 36.3249C46.8037 36.7122 46.4912 37.0265 46.1106 37.0265C45.73 37.0265 45.4174 36.7122 45.4174 36.3249Z" fill="white" stroke="white" stroke-width="0.2"/>
<path d="M55.9347 13.4599L55.9347 13.4598C55.7678 12.0744 54.5995 11.0249 53.2145 11.0249H45.9036C44.3875 11.0249 43.1598 12.2673 43.1598 13.7971V22.3946C43.1598 23.0491 42.6403 23.5726 41.9953 23.5726H3.5096C1.99349 23.5726 0.765723 24.8151 0.765723 26.3448V34.3963C0.765723 35.926 1.99349 37.1685 3.5096 37.1685H6.76272C7.21087 37.1685 7.55243 36.8079 7.55243 36.3714C7.55243 35.9338 7.19829 35.5743 6.76272 35.5743H3.5096C2.86463 35.5743 2.34514 35.0508 2.34514 34.3963V26.3448C2.34514 25.6903 2.86463 25.1668 3.5096 25.1668H41.9953C43.5114 25.1668 44.7392 23.9244 44.7392 22.3946V13.7971C44.7392 13.1426 45.2587 12.6191 45.9036 12.6191H53.2145C53.7945 12.6191 54.2939 13.0677 54.3683 13.6585L55.6442 24.3467L55.6434 24.3468L55.6464 24.3589C55.6544 24.3912 55.655 24.4362 55.655 24.4859V34.3614C55.655 35.0159 55.1355 35.5395 54.4905 35.5395H51.1454C50.7098 35.5395 50.3557 35.8989 50.3557 36.3365C50.3557 36.7742 50.7098 37.1336 51.1454 37.1336H54.4905C56.0066 37.1336 57.2344 35.8912 57.2344 34.3614V24.4859C57.2344 24.3642 57.2224 24.2551 57.211 24.1516L57.2108 24.1497L57.2107 24.1487L55.9347 13.4599Z" fill="white" stroke="white" stroke-width="0.2"/>
<path d="M41.8654 36.3512L41.8654 36.3512V36.3482C41.8654 35.9106 41.5113 35.5511 41.0757 35.5511H16.844C16.4084 35.5511 16.0543 35.9106 16.0543 36.3482C16.0543 36.7858 16.4084 37.1453 16.844 37.1453H41.0642C41.5129 37.1453 41.8524 36.7848 41.8654 36.3512Z" fill="white" stroke="white" stroke-width="0.2"/>
<path d="M47.72 25.1552H56.4103C56.8459 25.1552 57.2 24.7957 57.2 24.3581C57.2 23.9205 56.8459 23.561 56.4103 23.561H47.72C47.2844 23.561 46.9303 23.9205 46.9303 24.3581C46.9303 24.7957 47.2844 25.1552 47.72 25.1552Z" fill="white" stroke="white" stroke-width="0.2"/>
<path d="M0.765723 25.9033C0.765723 26.341 1.11986 26.7004 1.55543 26.7004C1.991 26.7004 2.34514 26.341 2.34514 25.9033V3.54977C2.34514 2.89527 2.86463 2.37176 3.5096 2.37176H41.9953C42.6403 2.37176 43.1598 2.89527 43.1598 3.54977V12.9722C43.1598 13.4098 43.5139 13.7693 43.9495 13.7693C44.385 13.7693 44.7392 13.4098 44.7392 12.9722V3.54977C44.7392 2.02003 43.5114 0.777563 41.9953 0.777563H3.5096C1.99349 0.777563 0.765723 2.02003 0.765723 3.54977V25.9033Z" fill="white" stroke="white" stroke-width="0.2"/>
<path d="M53.0881 30.9527H56.4102C56.8458 30.9527 57.1999 30.5932 57.1999 30.1556C57.1999 29.718 56.8458 29.3585 56.4102 29.3585H53.0881C52.6526 29.3585 52.2984 29.718 52.2984 30.1556C52.2984 30.5932 52.6526 30.9527 53.0881 30.9527Z" fill="white" stroke="white" stroke-width="0.2"/>
<path d="M7.34092 18.3049C7.34092 18.7426 7.69506 19.102 8.13063 19.102C8.57877 19.102 8.92033 18.7415 8.92033 18.3049V6.91902C8.92033 6.4814 8.5662 6.12192 8.13063 6.12192C7.69506 6.12192 7.34092 6.4814 7.34092 6.91902V18.3049Z" fill="#6892FF" stroke="#6892FF" stroke-width="0.2"/>
<path d="M12.169 18.3049C12.169 18.7426 12.5232 19.102 12.9588 19.102C13.4069 19.102 13.7485 18.7415 13.7485 18.3049V6.91902C13.7485 6.4814 13.3943 6.12192 12.9588 6.12192C12.5232 6.12192 12.169 6.4814 12.169 6.91902V18.3049Z" fill="#6892FF" stroke="#6892FF" stroke-width="0.2"/>
<path d="M16.9967 18.3049C16.9967 18.7426 17.3508 19.102 17.7864 19.102C18.2345 19.102 18.5761 18.7415 18.5761 18.3049V6.91902C18.5761 6.4814 18.222 6.12192 17.7864 6.12192C17.3508 6.12192 16.9967 6.4814 16.9967 6.91902V18.3049Z" fill="#6892FF" stroke="#6892FF" stroke-width="0.2"/>
<path d="M21.8248 18.3049C21.8248 18.7426 22.1789 19.102 22.6145 19.102C23.0627 19.102 23.4042 18.7415 23.4042 18.3049V6.91902C23.4042 6.4814 23.0501 6.12192 22.6145 6.12192C22.1789 6.12192 21.8248 6.4814 21.8248 6.91902V18.3049Z" fill="#6892FF" stroke="#6892FF" stroke-width="0.2"/>
<path d="M26.6529 18.3049C26.6529 18.7426 27.0071 19.102 27.4426 19.102C27.8908 19.102 28.2323 18.7415 28.2323 18.3049V6.91902C28.2323 6.4814 27.8782 6.12192 27.4426 6.12192C27.0071 6.12192 26.6529 6.4814 26.6529 6.91902V18.3049Z" fill="#6892FF" stroke="#6892FF" stroke-width="0.2"/>
<path d="M31.4806 18.3049C31.4806 18.7426 31.8347 19.102 32.2703 19.102C32.7184 19.102 33.06 18.7415 33.06 18.3049V6.91902C33.06 6.4814 32.7058 6.12192 32.2703 6.12192C31.8347 6.12192 31.4806 6.4814 31.4806 6.91902V18.3049Z" fill="#6892FF" stroke="#6892FF" stroke-width="0.2"/>
<path d="M36.3087 18.3049C36.3087 18.7426 36.6628 19.102 37.0984 19.102C37.5465 19.102 37.8881 18.7415 37.8881 18.3049V6.91902C37.8881 6.4814 37.534 6.12192 37.0984 6.12192C36.6628 6.12192 36.3087 6.4814 36.3087 6.91902V18.3049Z" fill="#6892FF" stroke="#6892FF" stroke-width="0.2"/>
</svg>
