<svg width="61" height="64" viewBox="0 0 61 64" fill="none" xmlns="http://www.w3.org/2000/svg">
<path d="M24 9C24 13.9572 20.1818 18 15.5 18C10.8182 18 7 13.9572 7 9C7 4.04278 10.8182 0 15.5 0C20.2273 0 24 3.99465 24 9Z" fill="#2946ED"/>
<path d="M15.477 18C19.5765 18 23.5379 19.637 26.4398 22.6303C29.3418 25.5768 31 29.5991 31 33.7617V39H0V33.7617C0 29.5991 1.61219 25.5768 4.56018 22.6303C7.46211 19.637 11.3774 18 15.477 18Z" fill="#4C7AF0"/>
<path d="M58.9394 32.2806C58.5025 32.2806 58.1094 32.1066 57.8037 31.8021C57.4979 31.4976 57.3232 31.106 57.3232 30.671V14.7476H33.9865C33.5497 14.7476 33.1566 14.5736 32.8071 14.269C32.5014 13.9645 32.3267 13.5295 32.3267 13.1379C32.3267 12.7029 32.5014 12.3114 32.8071 12.0069C33.1129 11.7023 33.5497 11.5283 33.9865 11.5283H58.9394C59.3762 11.5283 59.7693 11.7023 60.0751 12.0069C60.3808 12.3114 60.5555 12.7029 60.5555 13.1379V30.671C60.5555 31.5846 59.813 32.2806 58.9394 32.2806Z" fill="#D0DBF7"/>
<path d="M34.7107 63.6021H9.92967C9.01237 63.6021 8.31348 62.8625 8.31348 61.9925V47.3318C8.31348 46.4182 9.05605 45.7222 9.92967 45.7222C10.847 45.7222 11.5459 46.4617 11.5459 47.3318V60.3393H34.7107C35.628 60.3393 36.3269 61.0789 36.3269 61.949C36.3269 62.8625 35.5843 63.6021 34.7107 63.6021Z" fill="#D0DBF7"/>
</svg>
