<svg width="24" height="24" viewBox="0 0 24 24" fill="none" xmlns="http://www.w3.org/2000/svg">
<path d="M12.0776 23.1263C5.90003 23.1263 0.931152 18.1028 0.931152 11.8574C0.931152 5.61201 5.90003 0.452759 12.0776 0.452759C18.2551 0.452759 23.224 5.47624 23.224 11.7216C23.224 17.9671 18.2551 23.1263 12.0776 23.1263ZM12.0776 2.4893C6.97438 2.4893 2.94556 6.69817 2.94556 11.7216C2.94556 16.8809 7.10868 20.954 12.0776 20.954C17.1807 20.954 21.2096 16.7451 21.2096 11.7216C21.2096 6.69817 17.1807 2.4893 12.0776 2.4893Z" fill="#6892FF"/>
<path d="M14.9959 17.2255L15.0001 17.2161L15.0023 17.206L16.02 12.5822H17.293C17.295 12.5822 17.2971 12.5822 17.2994 12.5822C17.3339 12.5823 17.39 12.5824 17.4373 12.5648C17.4659 12.5542 17.4973 12.5353 17.5205 12.502C17.5353 12.4807 17.5442 12.4575 17.5486 12.4338C17.6319 12.3248 17.6318 12.2141 17.6318 12.1322L17.6318 12.1273C17.6318 12.061 17.6039 11.9992 17.586 11.9594C17.585 11.9573 17.5841 11.9553 17.5832 11.9533C17.5611 11.9039 17.5522 11.88 17.5522 11.8611C17.5522 11.8239 17.5437 11.7858 17.5205 11.7526C17.4973 11.7193 17.4659 11.7004 17.4373 11.6898C17.39 11.6722 17.3339 11.6723 17.2994 11.6724C17.2971 11.6724 17.295 11.6724 17.293 11.6724H16.2269L17.1458 8.00293C17.194 7.93778 17.2138 7.85499 17.2138 7.77984C17.2138 7.69628 17.1893 7.6033 17.1286 7.5356L17.1245 7.53102C17.0494 7.44731 16.9491 7.33546 16.7624 7.32564C16.6882 7.28615 16.6166 7.2584 16.5466 7.2584C16.4599 7.2584 16.395 7.30002 16.3428 7.35816L16.3411 7.36009C16.261 7.44937 16.1616 7.56011 16.1581 7.76857L15.3019 11.6724H13.4717L12.6139 7.93539C12.6139 7.9353 12.6139 7.93521 12.6138 7.93512C12.526 7.54387 12.2534 7.32494 11.959 7.32494C11.8135 7.32494 11.6684 7.3796 11.5499 7.49851C11.4327 7.61601 11.3463 7.79107 11.3038 8.02594L10.4464 11.7611H8.61623L7.75774 7.84714L7.75553 7.83705L7.7513 7.82763C7.66531 7.63594 7.57744 7.53802 7.4957 7.44692L7.49566 7.44688L7.46586 7.41366H7.42123H7.42077H7.4203H7.41983H7.41937H7.4189H7.41843H7.41797H7.4175H7.41703H7.41657H7.4161H7.41563H7.41517H7.4147H7.41423H7.41377H7.4133H7.41283H7.41236H7.4119H7.41143H7.41096H7.4105H7.41003H7.40956H7.40909H7.40863H7.40816H7.40769H7.40722H7.40675H7.40629H7.40582H7.40535H7.40488H7.40441H7.40394H7.40347H7.403H7.40253H7.40207H7.4016H7.40113H7.40066H7.40019H7.39972H7.39925H7.39878H7.3983H7.39783H7.39736H7.39689H7.39642H7.39595H7.39548H7.39501H7.39453H7.39406H7.39359H7.39312H7.39264H7.39217H7.3917H7.39122H7.39075H7.39027H7.3898H7.38933H7.38885H7.38838H7.3879H7.38742H7.38695H7.38647H7.386H7.38552H7.38504H7.38457H7.38409H7.38361H7.38313H7.38265H7.38218H7.3817H7.38122H7.38074H7.38026H7.37978H7.3793H7.37882H7.37834H7.37785H7.37737H7.37689H7.37641H7.37593H7.37544H7.37496H7.37448H7.37399H7.37351H7.37302H7.37254H7.37205H7.37157H7.37108H7.37059H7.37011H7.36962H7.36913H7.36864H7.36815H7.36766H7.36718H7.36669H7.3662H7.3657H7.36521H7.36472H7.36423H7.36374H7.36325H7.36275H7.36226H7.36176H7.36127H7.36077H7.36028H7.35978H7.35929H7.35879H7.35829H7.3578H7.3573H7.3568H7.3563H7.3558H7.3553H7.3548H7.3543H7.3538H7.35329H7.35279H7.35229H7.35179H7.35128H7.35078H7.35027H7.34977H7.34926H7.34875H7.34825H7.34774H7.34723H7.34672H7.34621H7.3457H7.34519H7.34468H7.34417H7.34365H7.34314H7.34263H7.34211H7.3416H7.34108H7.34057H7.34005H7.33954H7.33902H7.3385H7.33798H7.33746H7.33694H7.33642H7.3359H7.33538H7.33485H7.33433H7.33381H7.33328H7.33276H7.33223H7.33171H7.33118H7.33065H7.33012H7.32959H7.32906H7.32853H7.328H7.32747H7.32694H7.32641H7.32587H7.32534H7.3248H7.32427H7.32373H7.32319H7.32265H7.32212H7.32158H7.32104H7.3205H7.31995H7.31941H7.31887H7.31832H7.31778H7.31723H7.31669H7.31614H7.31559H7.31505H7.3145H7.31395H7.3134H7.31284H7.31229H7.31174H7.31119H7.31063H7.31008H7.30952H7.30896H7.30841H7.30785H7.30729H7.30673H7.30617H7.3056H7.30504H7.30448H7.30391H7.30335H7.30278H7.30222H7.30165H7.30108H7.30051H7.29994H7.29937H7.2988H7.29822H7.29765H7.29708H7.2965H7.29592H7.29535H7.29477H7.29419H7.29361H7.29303H7.29245H7.29186H7.29128H7.2907H7.29011H7.28952H7.28894H7.28835H7.28776H7.28717H7.28658H7.28599H7.28539H7.2848H7.28421H7.28361H7.28301H7.28242H7.28182H7.28122H7.28062H7.28002H7.27941H7.27881H7.27821H7.2776H7.27699H7.27639H7.27578H7.27517H7.27456H7.27395H7.27333H7.27272H7.27211H7.27149H7.27087H7.27026H7.26964H7.26902H7.2684H7.26777H7.26715H7.26653H7.2659H7.26528H7.26465H7.26402H7.26339H7.26276H7.26213H7.2615H7.26086H7.26023H7.25959H7.25896H7.25832H7.25768H7.25704H7.2564H7.25575H7.25511H7.25447H7.25382H7.25317H7.25253H7.25188H7.25123H7.25057H7.24992H7.24927H7.24861H7.24796H7.2473H7.24664H7.24598H7.24532H7.24466H7.244H7.24333H7.24267H7.242H7.24133H7.24066H7.23999H7.23932H7.23865H7.23797H7.2373H7.23662H7.23594H7.23526H7.23458H7.2339H7.23322H7.23254H7.23185H7.23117H7.23048H7.22979H7.2291H7.22841H7.22771H7.22702H7.22633H7.22563H7.22493H7.22423H7.22353H7.22283H7.22213H7.22142H7.22072H7.22001H7.2193H7.21859H7.21788H7.21717H7.21646H7.21574H7.21503H7.21431H7.21359H7.21287H7.21215H7.21143H7.2107H7.20998H7.20925H7.20852H7.20779H7.20706H7.20633H7.2056H7.20486H7.20412H7.20339H7.20265H7.20191H7.20116H7.20042H7.19968H7.19893H7.19818H7.19743H7.19668H7.19593H7.19518H7.19442H7.19367H7.19291H7.19215H7.19139H7.19063H7.18986H7.1891H7.18833H7.18757H7.1868H7.18603H7.18525H7.18448H7.1837H7.18293H7.18215H7.18137H7.18059H7.17981H7.17902H7.17824H7.17745H7.17666H7.17587H7.17508H7.17429H7.17349H7.17269H7.1719H7.1711H7.1703H7.16949H7.16869H7.16788H7.16708H7.16627H7.16546H7.16465H7.16383H7.16302H7.1622H7.16138H7.16056H7.15974H7.15892H7.1581H7.15727H7.15644H7.15561H7.15478H7.15395H7.15312H7.15228H7.15144H7.1506H7.14976H7.14892H7.14808H7.14723H7.14639H7.14554H7.14469H7.14383H7.14298H7.14212H7.14127H7.14041H7.13955H7.13869H7.13782H7.13696H7.13609H7.13522H7.13435H7.13348H7.13261H7.13173H7.13085H7.12997H7.12909H7.12821H7.12733H7.12644H7.12555H7.12466H7.12377H7.12288H7.12198H7.12109H7.12019H7.11929H7.11839H7.11749H7.11658H7.11567H7.11476H7.11385H7.11294H7.11203H7.11111H7.11019H7.10928H7.10835H7.10743H7.10651H7.10558H7.10465H7.10372H7.10279C6.89879 7.41366 6.79259 7.53212 6.71403 7.61975C6.71265 7.62128 6.71128 7.62281 6.70992 7.62433L6.68435 7.65282V7.69111C6.68435 7.69938 6.68246 7.71079 6.67646 7.73352C6.67547 7.73727 6.67434 7.74143 6.67311 7.74595C6.66786 7.76523 6.66086 7.79092 6.65606 7.81762C6.6433 7.88874 6.64418 7.97311 6.68909 8.07779L7.53384 11.6724H6.4659C6.46204 11.6724 6.45816 11.6724 6.45427 11.6724C6.38506 11.6723 6.31328 11.6723 6.25994 11.6872C6.22842 11.6959 6.19155 11.7127 6.16382 11.7475C6.14554 11.7704 6.13554 11.7957 6.13075 11.8207C6.04738 11.9298 6.04742 12.0405 6.04746 12.1224L6.04746 12.1273C6.04746 12.1936 6.07532 12.2554 6.09325 12.2952C6.09421 12.2973 6.09513 12.2993 6.09603 12.3013C6.11817 12.3507 6.12707 12.3746 6.12707 12.3935V12.4318L6.15264 12.4603C6.20476 12.5183 6.26091 12.5511 6.31965 12.5674C6.37279 12.5822 6.42441 12.5822 6.46192 12.5822L6.4659 12.5822H7.74022L8.83653 17.2076L8.83637 17.2076L8.83803 17.2132C8.87959 17.3521 8.92238 17.4489 8.96743 17.5242C9.0122 17.5991 9.05735 17.6494 9.09708 17.6937L9.09824 17.695C9.15968 17.7634 9.24525 17.7914 9.31363 17.8041C9.38244 17.8169 9.44973 17.8169 9.4892 17.8169H9.49111H9.49302C9.53249 17.8169 9.59978 17.8169 9.66859 17.8041C9.73264 17.7922 9.81177 17.7669 9.87203 17.7075C9.97122 17.6471 10.0197 17.5599 10.0522 17.4755C10.0654 17.441 10.077 17.4041 10.0878 17.3698C10.0903 17.3619 10.0928 17.3541 10.0952 17.3466C10.1086 17.3044 10.1221 17.2645 10.1396 17.2255L10.1438 17.2161L10.146 17.206L11.1637 12.5822H12.6748L13.6924 17.206L13.6922 17.2061L13.6943 17.2132C13.7358 17.3521 13.7786 17.4489 13.8237 17.5242C13.8685 17.5991 13.9136 17.6494 13.9533 17.6937L13.9545 17.695C14.0159 17.7634 14.1015 17.7914 14.1699 17.8041C14.2387 17.8169 14.306 17.8169 14.3455 17.8169H14.3474H14.3493C14.3887 17.8169 14.456 17.8169 14.5248 17.8041C14.5889 17.7922 14.668 17.7669 14.7283 17.7075C14.8275 17.6471 14.876 17.5599 14.9084 17.4755C14.9217 17.441 14.9333 17.4041 14.9441 17.3698C14.9466 17.3619 14.949 17.3541 14.9514 17.3466C14.9649 17.3044 14.9784 17.2645 14.9959 17.2255ZM9.49576 15.7517L8.81862 12.5822H10.2406L9.49576 15.7517ZM11.4462 11.6724L11.959 9.31499L12.4718 11.6724H11.4462ZM14.2724 15.7517L13.5953 12.5822H15.0173L14.2724 15.7517Z" fill="#6892FF" stroke="#6892FF" stroke-width="0.2"/>
</svg>
