<svg width="50" height="45" viewBox="0 0 50 45" fill="none" xmlns="http://www.w3.org/2000/svg">
<path d="M4.11772 35.8065H45.8824C47.7042 35.8065 49.1197 34.3904 49.1197 32.4783V4.10871C49.1197 2.39227 47.7042 0.878271 45.8824 0.878271H4.11772C2.39406 0.878271 0.880469 2.39222 0.880469 4.20653V32.5761C0.880469 34.2925 2.29598 35.8065 4.11772 35.8065ZM2.55106 4.10871C2.55106 3.27982 3.19617 2.54566 4.11772 2.54566H45.8824C46.7136 2.54566 47.4491 3.18968 47.4491 4.10871V32.4783C47.4491 33.3072 46.804 34.0413 45.8824 34.0413H4.11772C3.2865 34.0413 2.55106 33.3973 2.55106 32.4783V4.10871Z" fill="white" stroke="white" stroke-width="0.2"/>
<path d="M49.2147 28.7852L49.2177 28.7732V28.7609C49.2177 28.2083 48.7722 27.8783 48.3334 27.8783H1.76478C1.21154 27.8783 0.880469 28.3225 0.880469 28.7609C0.880469 29.3134 1.32598 29.6435 1.76478 29.6435H48.3334C48.5651 29.6435 48.7616 29.5275 48.9095 29.3666C49.0571 29.2059 49.1622 28.9947 49.2147 28.7852Z" fill="white" stroke="white" stroke-width="0.2"/>
<path d="M14.5183 43.6752L14.5176 43.6756L14.5246 43.686C14.6281 43.841 14.7369 43.9523 14.8656 44.0236C14.9949 44.0953 15.1355 44.1217 15.294 44.1217H34.7058C35.0507 44.1217 35.2751 43.8913 35.3834 43.6752L35.3866 43.6689L35.3888 43.6621C35.4918 43.354 35.4975 43.0308 35.3834 42.803L35.3836 42.8029L35.3801 42.797L30.4834 34.4907C30.4287 34.3325 30.3439 34.2166 30.2244 34.142C30.1043 34.0672 29.9607 34.0413 29.8038 34.0413H20.0979C19.9718 34.0413 19.8296 34.1018 19.7116 34.1803C19.5936 34.2588 19.4817 34.3673 19.4219 34.4846L14.5216 42.797L14.5162 42.8061L14.5129 42.8161C14.4099 43.1243 14.4042 43.4474 14.5183 43.6752ZM33.2566 42.4543H16.7431L20.6454 35.8065H29.3544L33.2566 42.4543Z" fill="white" stroke="white" stroke-width="0.2"/>
<path d="M11.5961 20.7121L11.6076 20.7236L11.6221 20.7308C11.6682 20.7538 11.7089 20.777 11.7486 20.7998C11.7516 20.8016 11.7546 20.8033 11.7576 20.805C11.7936 20.8258 11.8302 20.8469 11.8672 20.8653C11.9505 20.9069 12.0394 20.937 12.1569 20.937C12.3888 20.937 12.6088 20.8208 12.8158 20.6143L12.8162 20.6147L12.8232 20.6061L17.5291 14.7365L17.5291 14.7365L17.531 14.734C17.6918 14.5201 17.7502 14.2986 17.7217 14.086C17.6936 13.8754 17.582 13.6851 17.4236 13.5271L17.4186 13.522L17.4129 13.5178C17.1986 13.3574 16.9767 13.2992 16.7638 13.3275C16.553 13.3556 16.3623 13.4669 16.2039 13.6249L16.2035 13.6245L16.1966 13.6331L11.4907 19.5027L11.4906 19.5027L11.4888 19.5052C11.328 19.7191 11.2696 19.9406 11.298 20.1532C11.3261 20.3638 11.4378 20.5541 11.5961 20.7121Z" fill="white" stroke="white" stroke-width="0.2"/>
<path d="M18.5572 14.5491L18.5571 14.5491L18.5606 14.5523L27.1864 22.3769C27.3024 22.4916 27.5223 22.6 27.7455 22.6H27.753C27.9447 22.6 28.1611 22.6 28.3783 22.4917L28.3929 22.4844L28.4043 22.473C28.7376 22.1404 28.7376 21.5879 28.4043 21.2553L28.4044 21.2552L28.4013 21.2524L19.7754 13.3299C19.4421 12.999 18.8898 12.9995 18.5572 13.3314C18.2239 13.6639 18.2239 14.2165 18.5572 14.5491Z" fill="white" stroke="white" stroke-width="0.2"/>
<path d="M29.5375 22.1795L29.549 22.1909L29.5635 22.1982C29.6096 22.2212 29.6503 22.2444 29.69 22.2672L29.699 22.2724C29.735 22.2931 29.7717 22.3143 29.8086 22.3327C29.8919 22.3743 29.9808 22.4043 30.0983 22.4043L30.1106 22.4043C30.2475 22.4044 30.3858 22.4044 30.501 22.3613C30.6281 22.3138 30.7185 22.2189 30.7755 22.0597L39.2944 11.3121L39.2944 11.3121L39.2959 11.3101C39.4567 11.0962 39.5151 10.8747 39.4867 10.662C39.4585 10.4515 39.3469 10.2611 39.1886 10.1031L39.1836 10.0981L39.1779 10.0938C38.9635 9.93344 38.7417 9.87526 38.5288 9.90358C38.318 9.93163 38.1272 10.0429 37.9689 10.2009L37.9684 10.2005L37.9611 10.2096L29.4317 20.9705L29.4317 20.9705L29.4302 20.9725C29.2694 21.1864 29.211 21.4079 29.2394 21.6206C29.2676 21.8311 29.3792 22.0215 29.5375 22.1795Z" fill="white" stroke="white" stroke-width="0.2"/>
<path d="M13.5287 22.0352L13.5287 22.0352L13.5295 22.0319C13.8339 20.6144 13.0224 19.1868 11.5899 18.8805C10.1699 18.5769 8.73902 19.3861 8.43196 20.816C8.12842 22.2294 8.93442 23.653 10.3594 23.9647C10.5728 24.0674 10.7849 24.0674 10.9732 24.0674L10.9807 24.0674C12.2049 24.0674 13.2239 23.2518 13.5287 22.0352ZM10.0952 21.2599L10.0959 21.2602L10.0984 21.2479C10.1863 20.8091 10.5344 20.5457 10.9807 20.5457H10.9807H10.9807H10.9807H10.9807H10.9807H10.9808H10.9808H10.9808H10.9808H10.9808H10.9809H10.9809H10.9809H10.981H10.981H10.981H10.9811H10.9811H10.9812H10.9812H10.9812H10.9813H10.9813H10.9814H10.9815H10.9815H10.9816H10.9816H10.9817H10.9818H10.9818H10.9819H10.982H10.9821H10.9821H10.9822H10.9823H10.9824H10.9825H10.9825H10.9826H10.9827H10.9828H10.9829H10.983H10.9831H10.9832H10.9833H10.9834H10.9835H10.9836H10.9837H10.9839H10.984H10.9841H10.9842H10.9843H10.9845H10.9846H10.9847H10.9848H10.985H10.9851H10.9852H10.9854H10.9855H10.9857H10.9858H10.986H10.9861H10.9863H10.9864H10.9866H10.9867H10.9869H10.987H10.9872H10.9873H10.9875H10.9877H10.9878H10.988H10.9882H10.9884H10.9885H10.9887H10.9889H10.9891H10.9893H10.9894H10.9896H10.9898H10.99H10.9902H10.9904H10.9906H10.9908H10.991H10.9912H10.9914H10.9916H10.9918H10.992H10.9922H10.9924H10.9927H10.9929H10.9931H10.9933H10.9935H10.9938H10.994H10.9942H10.9944H10.9947H10.9949H10.9951H10.9954H10.9956H10.9958H10.9961H10.9963H10.9966H10.9968H10.9971H10.9973H10.9976H10.9978H10.9981H10.9983H10.9986H10.9988H10.9991H10.9994H10.9996H10.9999H11.0002H11.0004H11.0007H11.001H11.0012H11.0015H11.0018H11.0021H11.0023H11.0026H11.0029H11.0032H11.0035H11.0038H11.0041H11.0044H11.0046H11.0049H11.0052H11.0055H11.0058H11.0061H11.0064H11.0067H11.007H11.0074H11.0077H11.008H11.0083H11.0086H11.0089H11.0092H11.0095H11.0099H11.0102H11.0105H11.0108H11.0112H11.0115H11.0118H11.0121H11.0125H11.0128H11.0131H11.0135H11.0138H11.0141H11.0145H11.0148H11.0152H11.0155H11.0159H11.0162H11.0165H11.0169H11.0172H11.0176H11.018H11.0183H11.0187H11.019H11.0194H11.0197H11.0201H11.0205H11.0208H11.0212H11.0216H11.0219H11.0223H11.0227H11.023H11.0234H11.0238H11.0242H11.0246H11.0249H11.0253H11.0257H11.0261H11.0265H11.0268H11.0272H11.0276H11.028H11.0284H11.0288H11.0292H11.0296H11.03H11.0304H11.0308H11.0312H11.0316H11.032H11.0324H11.0328H11.0332H11.0336H11.034H11.0344H11.0348H11.0352H11.0356H11.0361H11.0365H11.0369H11.0373H11.0377H11.0382H11.0386H11.039H11.0394H11.0398H11.0403H11.0407H11.0411H11.0416H11.042H11.0424H11.0428H11.0433H11.0437H11.0441H11.0446H11.045H11.0455H11.0459H11.0463H11.0468H11.0472H11.0477H11.0481H11.0486H11.049H11.0495H11.0499H11.0504H11.0508H11.0513H11.0517H11.0522H11.0526H11.0531H11.0535H11.054H11.0545H11.0549H11.0554H11.0559H11.0563H11.0568H11.0572H11.0577H11.0582H11.0587H11.0591H11.0596H11.0601H11.0605H11.061H11.0615H11.062H11.0624H11.0629H11.0634H11.0639H11.0644H11.0648H11.0653H11.0658H11.0663H11.0668H11.0673H11.0677H11.0682H11.0687H11.0692H11.0697H11.0702H11.0707H11.0712H11.0717H11.0722H11.0727H11.0731H11.0736H11.0741H11.0746H11.0751H11.0756H11.0761H11.0766H11.0771H11.0776H11.0781H11.0787H11.0792H11.0797H11.0802H11.0807H11.0812H11.0817H11.0822H11.0827H11.0832H11.0837H11.0843H11.0848H11.0853H11.0858H11.0863H11.0868H11.0873H11.0879H11.0884H11.0889H11.0894H11.0899H11.0905H11.091H11.0915H11.092H11.0926H11.0931H11.0936H11.0941H11.0947H11.0952H11.0957H11.0962H11.0968H11.0973H11.0978H11.0984H11.0989H11.0994H11.1H11.1005H11.101H11.1016H11.1021H11.1026H11.1032H11.1037H11.1042H11.1048H11.1053H11.1059H11.1064H11.1069H11.1075H11.108H11.1086H11.1091H11.1097H11.1102H11.1107H11.1113H11.1118H11.1124H11.1129H11.1135H11.114H11.1146H11.1151H11.1157H11.1162H11.1168H11.1173H11.1179H11.1184H11.119H11.1195H11.1201H11.1206H11.1212H11.1217H11.1223H11.1228H11.1234H11.1239H11.1245H11.1251H11.1256H11.1262H11.1267H11.1273H11.1278H11.1284H11.129H11.1295H11.1301H11.1306H11.1312H11.1318H11.1323H11.1329H11.1334H11.134H11.1346H11.1351H11.1357H11.1363H11.1368H11.1374H11.138H11.1385H11.1391H11.1396H11.1402H11.1408H11.1413H11.1419H11.1425H11.143H11.1436H11.1442H11.1447H11.1453H11.1459H11.1464H11.147H11.1476H11.1482H11.1487H11.1493H11.1499H11.1504H11.151H11.1516H11.1521H11.1527H11.1533H11.1539H11.1544H11.155H11.1556H11.1561H11.1567H11.1573H11.1579H11.1584H11.159H11.1596H11.1601H11.1607H11.1613H11.1619H11.1624H11.163H11.1636H11.1642H11.1647H11.1653H11.1659H11.1664H11.167H11.1676H11.1682H11.1683C11.6802 20.6356 11.954 21.1529 11.8625 21.7009C11.7764 22.2164 11.2555 22.4932 10.703 22.4014C10.1866 22.3155 9.91481 21.7998 10.0952 21.2599Z" fill="#6892FF" stroke="#6892FF" stroke-width="0.2"/>
<path d="M15.5053 14.1425L15.505 14.1427L15.5104 14.1495C15.9109 14.649 16.4151 15.0533 17.1209 15.2567C17.3353 15.3609 17.5486 15.3609 17.7378 15.3609L17.7453 15.3609C18.9601 15.3609 20.0873 14.5532 20.2944 13.4216C20.5979 12.0047 19.7865 10.578 18.3545 10.2718C16.9363 9.96853 15.5072 10.7754 15.1977 12.2019C14.9933 12.8196 15.0988 13.5341 15.5053 14.1425ZM16.8598 12.5534L16.8605 12.5537L16.863 12.5414C16.9509 12.1026 17.299 11.8391 17.7453 11.8391H17.7459H17.7465H17.747H17.7476H17.7482H17.7488H17.7493H17.7499H17.7505H17.7511H17.7516H17.7522H17.7528H17.7534H17.7539H17.7545H17.7551H17.7556H17.7562H17.7568H17.7574H17.7579H17.7585H17.7591H17.7597H17.7602H17.7608H17.7614H17.762H17.7625H17.7631H17.7637H17.7643H17.7648H17.7654H17.766H17.7666H17.7671H17.7677H17.7683H17.7689H17.7694H17.77H17.7706H17.7712H17.7717H17.7723H17.7729H17.7735H17.774H17.7746H17.7752H17.7758H17.7763H17.7769H17.7775H17.7781H17.7786H17.7792H17.7798H17.7804H17.7809H17.7815H17.7821H17.7826H17.7832H17.7838H17.7844H17.7849H17.7855H17.7861H17.7867H17.7872H17.7878H17.7884H17.789H17.7895H17.7901H17.7907H17.7913H17.7918H17.7924H17.793H17.7936H17.7941H17.7947H17.7953H17.7959H17.7964H17.797H17.7976H17.7982H17.7987H17.7993H17.7999H17.8005H17.801H17.8016H17.8022H17.8028H17.8033H17.8039H17.8045H17.8051H17.8056H17.8062H17.8068H17.8073H17.8079H17.8085H17.8091H17.8096H17.8102H17.8108H17.8114H17.8119H17.8125H17.8131H17.8137H17.8142H17.8148H17.8154H17.816H17.8165H17.8171H17.8177H17.8183H17.8188H17.8194H17.82H17.8206H17.8211H17.8217H17.8223H17.8229H17.8234H17.824H17.8246H17.8252H17.8257H17.8263H17.8269H17.8275H17.828H17.8286H17.8292H17.8298H17.8303H17.8309H17.8315H17.8321H17.8326H17.8332H17.8338H17.8343H17.8349H17.8355H17.8361H17.8366H17.8372H17.8378H17.8384H17.8389H17.8395H17.8401H17.8407H17.8412H17.8418H17.8424H17.843H17.8435H17.8441H17.8447H17.8453H17.8458H17.8464H17.847H17.8476H17.8481H17.8487H17.8493H17.8499H17.8504H17.851H17.8516H17.8522H17.8527H17.8533H17.8539H17.8545H17.855H17.8556H17.8562H17.8568H17.8573H17.8579H17.8585H17.859H17.8596H17.8602H17.8608H17.8613H17.8619H17.8625H17.8631H17.8636H17.8642H17.8648H17.8654H17.8659H17.8665H17.8671H17.8677H17.8682H17.8688H17.8694H17.87H17.8705H17.8711H17.8717H17.8723H17.8728H17.8734H17.874H17.8746H17.8751H17.8757H17.8763H17.8769H17.8774H17.878H17.8786H17.8792H17.8797H17.8803H17.8809H17.8815H17.882H17.8826H17.8832H17.8838H17.8843H17.8849H17.8855H17.886H17.8866H17.8872H17.8878H17.8883H17.8889H17.8895H17.8901H17.8906H17.8912H17.8918H17.8924H17.8929H17.8935H17.8941H17.8947H17.8952H17.8958H17.8964H17.897H17.8975H17.8981H17.8987H17.8993H17.8998H17.9004H17.901H17.9016H17.9021H17.9027H17.9033H17.9039H17.9044H17.905H17.9056H17.9062H17.9067H17.9073H17.9079H17.9085H17.909H17.9096H17.9102H17.9107H17.9113H17.9119H17.9125H17.913H17.9136H17.9142H17.9148H17.9153H17.9159H17.9165H17.9171H17.9176H17.9182H17.9188H17.9194H17.9199H17.9205H17.9211H17.9217H17.9222H17.9228H17.9234H17.924H17.9245H17.9251H17.9257H17.9263H17.9268H17.9274H17.928H17.9286H17.9291H17.9297H17.9303H17.9309H17.9314H17.932H17.9326H17.9332H17.9337H17.9343H17.9349H17.9355H17.936H17.9366H17.9372H17.9377H17.9383H17.9389H17.9395H17.94H17.9406H17.9412H17.9418H17.9423H17.9429H17.9435H17.9441H17.9446H17.9452H17.9458H17.9464H17.9469H17.9475H17.9481H17.9487H17.9492H17.9498H17.9504H17.951H17.9515H17.9521H17.9527H17.9533H17.9538H17.9544H17.955H17.9556H17.9561H17.9567H17.9573H17.9579H17.9584H17.959H17.9596H17.9602H17.9607H17.9613H17.9619H17.9624H17.963H17.9636H17.9642H17.9647H17.9653H17.9659H17.9665H17.967H17.9676H17.9682H17.9688H17.9693H17.9699H17.9705H17.9711H17.9716H17.9722H17.9728H17.9734H17.9739H17.9745H17.9751H17.9757H17.9762H17.9768H17.9774H17.978H17.9785H17.9791H17.9797H17.9803H17.9808H17.9814H17.982H17.9826H17.9831H17.9837H17.9843H17.9849H17.9854H17.986H17.9866H17.9872H17.9877H17.9883H17.9889H17.9894H17.99H17.9906H17.9912H17.9917H17.9923H17.9929H17.9935H17.994H17.9946H17.9952H17.9958H17.9963H17.9969H17.9975H17.9981H17.9986H17.9992H17.9998H18.0004H18.0009H18.0015H18.0021H18.0027H18.0032H18.0038H18.0044H18.005H18.0055H18.0061H18.0067H18.0073H18.0078H18.0084H18.009H18.0096H18.0101H18.0107H18.0113H18.0119H18.0124H18.013H18.0136H18.0141H18.0147H18.0153H18.0159H18.0164H18.017H18.0176H18.0182H18.0187H18.0193H18.0199H18.0205H18.021H18.0216H18.0222H18.0228H18.0233H18.0239H18.0245H18.0251H18.0256H18.0262H18.0268H18.0274H18.0279H18.0285H18.0291H18.0297H18.0302H18.0308H18.0309C18.5428 11.9291 18.8166 12.4464 18.7251 12.9944C18.6394 13.5075 18.123 13.7841 17.5734 13.6961C17.3141 13.6077 17.1368 13.4362 16.9453 13.2452C16.8541 13.0585 16.7766 12.8023 16.8598 12.5534Z" fill="#6892FF" stroke="#6892FF" stroke-width="0.2"/>
<path d="M37.3681 10.6208L37.3678 10.621L37.3732 10.6278C37.7737 11.1273 38.2779 11.5316 38.9837 11.735C39.1981 11.8392 39.4114 11.8392 39.6006 11.8391L39.6081 11.8391C40.831 11.8391 41.8492 11.0252 42.1551 9.81063C42.3603 9.19247 42.255 8.47735 41.8481 7.86836L41.8484 7.86815L41.843 7.86136C41.4409 7.35982 40.9342 6.9542 40.2238 6.75166C38.7946 6.34423 37.3686 7.25995 37.0605 8.68012C36.8561 9.29791 36.9616 10.0123 37.3681 10.6208ZM38.7226 9.03169L38.7233 9.03194L38.7258 9.01966C38.8137 8.58085 39.1618 8.3174 39.6081 8.3174H39.6087H39.6092H39.6098H39.6104H39.6109H39.6115H39.6121H39.6126H39.6132H39.6137H39.6143H39.6148H39.6154H39.6159H39.6165H39.617H39.6176H39.6181H39.6186H39.6192H39.6197H39.6202H39.6207H39.6213H39.6218H39.6223H39.6228H39.6234H39.6239H39.6244H39.6249H39.6254H39.6259H39.6264H39.6269H39.6274H39.6279H39.6284H39.6289H39.6294H39.6299H39.6304H39.6309H39.6314H39.6319H39.6324H39.6328H39.6333H39.6338H39.6343H39.6348H39.6352H39.6357H39.6362H39.6367H39.6371H39.6376H39.6381H39.6385H39.639H39.6395H39.6399H39.6404H39.6408H39.6413H39.6418H39.6422H39.6427H39.6431H39.6436H39.644H39.6445H39.6449H39.6454H39.6458H39.6462H39.6467H39.6471H39.6476H39.648H39.6484H39.6489H39.6493H39.6497H39.6502H39.6506H39.651H39.6515H39.6519H39.6523H39.6527H39.6532H39.6536H39.654H39.6544H39.6548H39.6553H39.6557H39.6561H39.6565H39.6569H39.6573H39.6578H39.6582H39.6586H39.659H39.6594H39.6598H39.6602H39.6606H39.661H39.6614H39.6618H39.6623H39.6627H39.6631H39.6635H39.6639H39.6643H39.6647H39.6651H39.6655H39.6659H39.6663H39.6667H39.6671H39.6674H39.6678H39.6682H39.6686H39.669H39.6694H39.6698H39.6702H39.6706H39.671H39.6714H39.6718H39.6722H39.6725H39.6729H39.6733H39.6737H39.6741H39.6745H39.6749H39.6753H39.6756H39.676H39.6764H39.6768H39.6772H39.6776H39.678H39.6783H39.6787H39.6791H39.6795H39.6799H39.6803H39.6925H39.6929H39.6933H39.6937H39.6941H39.6945H39.6949H39.6953H39.6956H39.696H39.6964H39.6968H39.6972H39.6976H39.698H39.6984H39.6988H39.6992H39.6996H39.6999H39.7003H39.7007H39.7011H39.7015H39.7019H39.7023H39.7027H39.7031H39.7035H39.7039H39.7043H39.7047H39.7051H39.7055H39.7059H39.7063H39.7067H39.7071H39.7075H39.7079H39.7083H39.7088H39.7092H39.7096H39.71H39.7104H39.7108H39.7112H39.7116H39.7121H39.7125H39.7129H39.7133H39.7137H39.7141H39.7146H39.715H39.7154H39.7158H39.7163H39.7167H39.7171H39.7175H39.718H39.7184H39.7188H39.7193H39.7197H39.7201H39.7206H39.721H39.7214H39.7219H39.7223H39.7228H39.7232H39.7237H39.7241H39.7245H39.725H39.7254H39.7259H39.7263H39.7268H39.7273H39.7277H39.7282H39.7286H39.7291H39.7296H39.73H39.7305H39.7309H39.7314H39.7319H39.7324H39.7328H39.7333H39.7338H39.7343H39.7347H39.7352H39.7357H39.7362H39.7367H39.7372H39.7376H39.7381H39.7386H39.7391H39.7396H39.7401H39.7406H39.7411H39.7416H39.7421H39.7426H39.7431H39.7436H39.7442H39.7447H39.7452H39.7457H39.7462H39.7467H39.7473H39.7478H39.7483H39.7488H39.7494H39.7499H39.7504H39.751H39.7515H39.7521H39.7526H39.7531H39.7537H39.7542H39.7548H39.7553H39.7559H39.7565H39.757H39.7576H39.7581H39.7587H39.7593H39.7598H39.7604H39.761H39.7616H39.7621H39.7627H39.7633H39.7639H39.7645H39.7651H39.7657H39.7663H39.7669H39.7675H39.7681H39.7687H39.7693H39.7699H39.7705H39.7711H39.7717H39.7724H39.773H39.7736H39.7742H39.7749H39.7755H39.7761H39.7768H39.7774H39.778H39.7787H39.7793H39.78H39.7806H39.7813H39.782H39.7826H39.7833H39.784H39.7846H39.7853H39.786H39.7866H39.7873H39.788H39.7887H39.7894H39.7901H39.7908H39.7915H39.7922H39.7929H39.7936H39.7943H39.795H39.7957H39.7964H39.7972H39.7979H39.7986H39.7993H39.8001H39.8008H39.8016H39.8023H39.803H39.8038H39.8045H39.8053H39.8061H39.8068H39.8076H39.8083H39.8091H39.8099H39.8107H39.8114H39.8122H39.813H39.8138H39.8146H39.8154H39.8162H39.817H39.8178H39.8186H39.8194H39.8202H39.8211H39.8219H39.8227H39.8235H39.8244H39.8252H39.8261H39.8269H39.8277H39.8286H39.8295H39.8303H39.8312H39.832H39.8329H39.8338H39.8347H39.8355H39.8364H39.8373H39.8382H39.8391H39.84H39.8409H39.8418H39.8427H39.8436H39.8445H39.8455H39.8464H39.8473H39.8482H39.8492H39.8501H39.8511H39.852H39.8597H39.8607H39.8617H39.8627H39.8637H39.8647H39.8657H39.8667H39.8677H39.8687H39.8697H39.8707H39.8718H39.8728H39.8738H39.8749H39.8759H39.877H39.878H39.8791H39.8801H39.8812H39.8823H39.8833H39.8844H39.8855H39.8857C40.1408 8.40649 40.3165 8.57659 40.5062 8.76566C40.5973 8.95238 40.6748 9.20857 40.5917 9.45745L40.5892 9.46491L40.5879 9.47266C40.5022 9.98572 39.9858 10.2624 39.4362 10.1744C39.1769 10.086 38.9996 9.91442 38.8081 9.72347C38.7169 9.53676 38.6394 9.28057 38.7226 9.03169Z" fill="#6892FF" stroke="#6892FF" stroke-width="0.2"/>
<path d="M26.7797 24.4142L26.7794 24.4144L26.7848 24.4212C27.1853 24.9207 27.6895 25.3251 28.3953 25.5284C28.6097 25.6326 28.823 25.6326 29.0122 25.6326L29.0197 25.6326C30.2345 25.6326 31.3617 24.8249 31.5688 23.6934C31.8723 22.2764 31.0609 20.8497 29.6289 20.5435C28.2107 20.2403 26.7816 21.0471 26.4721 22.4736C26.2677 23.0914 26.3732 23.8058 26.7797 24.4142ZM28.1342 22.8251L28.1349 22.8254L28.1374 22.8131C28.2253 22.3743 28.5734 22.1109 29.0197 22.1109H29.0203H29.0209H29.0214H29.022H29.0226H29.0232H29.0237H29.0243H29.0249H29.0255H29.026H29.0266H29.0272H29.0278H29.0283H29.0289H29.0295H29.0301H29.0306H29.0312H29.0318H29.0324H29.0329H29.0335H29.0341H29.0347H29.0352H29.0358H29.0364H29.037H29.0375H29.0381H29.0387H29.0393H29.0398H29.0404H29.041H29.0416H29.0421H29.0427H29.0433H29.0438H29.0444H29.045H29.0456H29.0461H29.0467H29.0473H29.0479H29.0484H29.049H29.0496H29.0502H29.0507H29.0513H29.0519H29.0525H29.053H29.0536H29.0542H29.0548H29.0553H29.0559H29.0565H29.0571H29.0576H29.0582H29.0588H29.0594H29.0599H29.0605H29.0611H29.0617H29.0622H29.0628H29.0634H29.064H29.0645H29.0651H29.0657H29.0663H29.0668H29.0674H29.068H29.0686H29.0691H29.0697H29.0703H29.0708H29.0714H29.072H29.0726H29.0731H29.0737H29.0743H29.0749H29.0754H29.076H29.0766H29.0772H29.0777H29.0783H29.0789H29.0795H29.08H29.0806H29.0812H29.0818H29.0823H29.0829H29.0835H29.0841H29.0846H29.0852H29.0858H29.0864H29.0869H29.0875H29.0881H29.0887H29.0892H29.0898H29.0904H29.091H29.0915H29.0921H29.0927H29.0933H29.0938H29.0944H29.095H29.0956H29.0961H29.0967H29.0973H29.0978H29.0984H29.099H29.0996H29.1001H29.1007H29.1013H29.1019H29.1024H29.103H29.1036H29.1042H29.1047H29.1053H29.1059H29.1065H29.107H29.1076H29.1082H29.1088H29.1093H29.1099H29.1105H29.1111H29.1116H29.1122H29.1128H29.1134H29.1139H29.1145H29.1151H29.1157H29.1162H29.1168H29.1174H29.118H29.1185H29.1191H29.1197H29.1203H29.1208H29.1214H29.122H29.1225H29.1231H29.1237H29.1243H29.1248H29.1254H29.126H29.1266H29.1271H29.1277H29.1283H29.1289H29.1294H29.13H29.1306H29.1312H29.1317H29.1323H29.1329H29.1335H29.134H29.1346H29.1352H29.1358H29.1363H29.1369H29.1375H29.1381H29.1386H29.1392H29.1398H29.1404H29.1409H29.1415H29.1421H29.1427H29.1432H29.1438H29.1444H29.145H29.1455H29.1461H29.1467H29.1473H29.1478H29.1484H29.149H29.1495H29.1501H29.1507H29.1513H29.1518H29.1524H29.153H29.1536H29.1541H29.1547H29.1553H29.1559H29.1564H29.157H29.1576H29.1582H29.1587H29.1593H29.1599H29.1605H29.161H29.1616H29.1622H29.1628H29.1633H29.1639H29.1645H29.1651H29.1656H29.1662H29.1668H29.1674H29.1679H29.1685H29.1691H29.1697H29.1702H29.1708H29.1714H29.172H29.1725H29.1731H29.1737H29.1742H29.1748H29.1754H29.176H29.1765H29.1771H29.1777H29.1783H29.1788H29.1794H29.18H29.1806H29.1811H29.1817H29.1823H29.1829H29.1834H29.184H29.1846H29.1852H29.1857H29.1863H29.1869H29.1875H29.188H29.1886H29.1892H29.1898H29.1903H29.1909H29.1915H29.1921H29.1926H29.1932H29.1938H29.1944H29.1949H29.1955H29.1961H29.1967H29.1972H29.1978H29.1984H29.199H29.1995H29.2001H29.2007H29.2012H29.2018H29.2024H29.203H29.2035H29.2041H29.2047H29.2053H29.2058H29.2064H29.207H29.2076H29.2081H29.2087H29.2093H29.2099H29.2104H29.211H29.2116H29.2122H29.2127H29.2133H29.2139H29.2145H29.215H29.2156H29.2162H29.2168H29.2173H29.2179H29.2185H29.2191H29.2196H29.2202H29.2208H29.2214H29.2219H29.2225H29.2231H29.2237H29.2242H29.2248H29.2254H29.2259H29.2265H29.2271H29.2277H29.2282H29.2288H29.2294H29.23H29.2305H29.2311H29.2317H29.2323H29.2328H29.2334H29.234H29.2346H29.2351H29.2357H29.2363H29.2369H29.2374H29.238H29.2386H29.2392H29.2397H29.2403H29.2409H29.2415H29.242H29.2426H29.2432H29.2438H29.2443H29.2449H29.2455H29.2461H29.2466H29.2472H29.2478H29.2484H29.2489H29.2495H29.2501H29.2507H29.2512H29.2518H29.2524H29.2529H29.2535H29.2541H29.2547H29.2552H29.2558H29.2564H29.257H29.2575H29.2581H29.2587H29.2593H29.2598H29.2604H29.261H29.2616H29.2621H29.2627H29.2633H29.2639H29.2644H29.265H29.2656H29.2662H29.2667H29.2673H29.2679H29.2685H29.269H29.2696H29.2702H29.2708H29.2713H29.2719H29.2725H29.2731H29.2736H29.2742H29.2748H29.2754H29.2759H29.2765H29.2771H29.2776H29.2782H29.2788H29.2794H29.2799H29.2805H29.2811H29.2817H29.2822H29.2828H29.2834H29.284H29.2845H29.2851H29.2857H29.2863H29.2868H29.2874H29.288H29.2886H29.2891H29.2897H29.2903H29.2909H29.2914H29.292H29.2926H29.2932H29.2937H29.2943H29.2949H29.2955H29.296H29.2966H29.2972H29.2978H29.2983H29.2989H29.2995H29.3001H29.3006H29.3012H29.3018H29.3024H29.3029H29.3035H29.3041H29.3046H29.3052H29.3054C29.8173 22.2008 30.0911 22.7181 29.9995 23.2661C29.9138 23.7792 29.3975 24.0558 28.8478 23.9678C28.5885 23.8795 28.4112 23.7079 28.2197 23.5169C28.1286 23.3302 28.051 23.074 28.1342 22.8251Z" fill="#6892FF" stroke="#6892FF" stroke-width="0.2"/>
</svg>
