<svg width="49" height="38" viewBox="0 0 49 38" fill="none" xmlns="http://www.w3.org/2000/svg">
<path d="M12.8434 23.9942C6.69588 23.9942 0.54834 22.2678 0.54834 19.0452C0.54834 15.8225 6.69588 14.0961 12.8434 14.0961C18.991 14.0961 25.1385 15.8225 25.1385 19.0452C25.2523 22.2678 18.991 23.9942 12.8434 23.9942ZM12.8434 15.9376C6.35435 15.9376 2.25599 17.7792 2.25599 19.1603C2.25599 20.4263 6.35435 22.3829 12.8434 22.3829C19.3325 22.3829 23.4309 20.5414 23.4309 19.1603C23.5447 17.7792 19.3325 15.9376 12.8434 15.9376Z" fill="white"/>
<path d="M12.8434 30.5546C6.69588 30.5546 0.54834 28.8282 0.54834 25.6056C0.54834 25.1452 0.88987 24.6848 1.45909 24.6848C1.91446 24.6848 2.36983 25.0301 2.36983 25.6056C2.36983 26.8716 6.46819 28.8282 12.9573 28.8282C19.4463 28.8282 23.5447 26.9867 23.5447 25.6056C23.5447 25.1452 23.8862 24.6848 24.4554 24.6848C24.9108 24.6848 25.3662 25.0301 25.3662 25.6056C25.2523 28.8282 18.991 30.5546 12.8434 30.5546Z" fill="white"/>
<path d="M12.8434 37.2301C6.69588 37.2301 0.54834 35.6188 0.54834 32.3962C0.54834 31.9358 0.88987 31.4754 1.45909 31.4754C1.91446 31.4754 2.36983 31.8207 2.36983 32.3962C2.36983 33.6622 6.46819 35.6188 12.9573 35.6188C19.4463 35.6188 23.5447 33.7773 23.5447 32.3962C23.5447 31.9358 23.8862 31.4754 24.4554 31.4754C24.9108 31.4754 25.3662 31.8207 25.3662 32.3962C25.2523 35.6188 18.991 37.2301 12.8434 37.2301Z" fill="white"/>
<path d="M1.45909 33.6622C1.00371 33.6622 0.54834 33.3169 0.54834 32.7414V19.0452C0.54834 18.5848 0.88987 18.1245 1.45909 18.1245C1.91446 18.1245 2.36983 18.4697 2.36983 19.0452V32.7414C2.25599 33.3169 1.91446 33.6622 1.45909 33.6622Z" fill="white"/>
<path d="M35.84 10.7584C29.6925 10.7584 23.5449 9.03199 23.5449 5.80935C23.5449 2.5867 29.6925 0.860291 35.84 0.860291C41.9875 0.860291 48.1351 2.5867 48.1351 5.80935C48.1351 9.03199 41.9875 10.7584 35.84 10.7584ZM35.84 2.7018C29.3509 2.7018 25.2526 4.54331 25.2526 5.92444C25.2526 7.19048 29.3509 9.14708 35.84 9.14708C42.3291 9.14708 46.4274 7.30557 46.4274 5.92444C46.4274 4.54331 42.3291 2.7018 35.84 2.7018Z" fill="white"/>
<path d="M35.84 17.2037C29.6925 17.2037 23.5449 15.4773 23.5449 12.3697C23.5449 11.9094 23.8865 11.449 24.4557 11.449C24.911 11.449 25.3664 11.7943 25.3664 12.3697C25.3664 13.6358 29.4648 15.4773 35.9538 15.4773C42.4429 15.4773 46.5413 13.6358 46.5413 12.3697C46.5413 11.9094 46.8828 11.449 47.452 11.449C48.0212 11.449 48.3628 11.7943 48.3628 12.3697C48.1351 15.5924 41.9875 17.2037 35.84 17.2037Z" fill="white"/>
<path d="M35.84 23.9943C29.6925 23.9943 23.5449 22.2679 23.5449 19.0452C23.5449 18.5848 23.8865 18.1245 24.4557 18.1245C24.911 18.1245 25.3664 18.4697 25.3664 19.0452C25.3664 20.3112 29.4648 22.2678 35.9538 22.2678C42.4429 22.2678 46.5413 20.4263 46.5413 19.0452C46.5413 18.5848 46.8828 18.1245 47.452 18.1245C48.0212 18.1245 48.3628 18.4697 48.3628 19.0452C48.1351 22.3829 41.9875 23.9943 35.84 23.9943Z" fill="white"/>
<path d="M35.84 30.5546C29.6925 30.5546 23.5449 28.8282 23.5449 25.6056C23.5449 25.1452 23.8865 24.6848 24.4557 24.6848C24.911 24.6848 25.3664 25.0301 25.3664 25.6056C25.3664 26.8716 29.4648 28.8282 35.9538 28.8282C42.4429 28.8282 46.5413 26.9867 46.5413 25.6056C46.5413 25.1452 46.8828 24.6848 47.452 24.6848C48.0212 24.6848 48.3628 25.0301 48.3628 25.6056C48.1351 28.8282 41.9875 30.5546 35.84 30.5546Z" fill="white"/>
<path d="M35.84 37.2301C29.6925 37.2301 23.5449 35.5037 23.5449 32.281C23.5449 31.8207 23.8865 31.3603 24.4557 31.3603C24.911 31.3603 25.3664 31.7056 25.3664 32.281C25.3664 33.5471 29.4648 35.5037 35.9538 35.5037C42.4429 35.5037 46.5413 33.6622 46.5413 32.281C46.5413 31.8207 46.8828 31.3603 47.452 31.3603C48.0212 31.3603 48.3628 31.7056 48.3628 32.281C48.1351 35.6188 41.9875 37.2301 35.84 37.2301Z" fill="white"/>
<path d="M24.3414 33.2018C23.886 33.2018 23.4307 32.8565 23.4307 32.2811V5.80936C23.4307 5.34899 23.7722 4.88861 24.3414 4.88861C24.7968 4.88861 25.2522 5.23389 25.2522 5.80936V32.3962C25.2522 32.8565 24.7968 33.2018 24.3414 33.2018Z" fill="white"/>
<path d="M47.4107 33.2018C46.9554 33.2018 46.5 32.8565 46.5 32.2811V5.80936C46.5 5.34899 46.8415 4.88861 47.4107 4.88861C47.98 4.88861 48.3215 5.23389 48.3215 5.80936V32.3962C48.2077 32.8565 47.8661 33.2018 47.4107 33.2018Z" fill="white"/>
</svg>
