<svg width="75" height="75" viewBox="0 0 75 75" fill="none" xmlns="http://www.w3.org/2000/svg">
<path d="M32.3341 29.7322V31.0332H19.4004V29.7322C19.4004 26.1735 22.3086 23.2654 25.8672 23.2654C29.4259 23.2654 32.3341 26.1735 32.3341 29.7322Z" fill="#4C7AF0"/>
<path d="M37.5001 20.7014C36.8113 20.7014 36.1608 20.4336 35.6633 19.9361C35.5485 19.8213 32.3343 16.7984 25.8674 16.7984C19.4006 16.7984 16.1863 19.8213 16.0332 19.9361C15.0001 20.931 13.3929 20.8928 12.398 19.8979C11.4031 18.903 11.4031 17.2576 12.398 16.2627C12.5894 16.0713 17.1429 11.6326 25.8674 11.6326C34.5919 11.6326 39.1455 16.0713 39.3368 16.2627C40.0638 16.9897 40.2934 18.0994 39.9108 19.0943C39.4899 20.0509 38.5332 20.7014 37.5001 20.7014Z" fill="#7D9EF3"/>
<path d="M46.5688 12.9337C45.8418 12.9337 45.1147 12.6276 44.6173 12.0536C44.3877 11.7857 38.227 5.16582 25.8673 5.16582C13.5076 5.16582 7.34686 11.7857 7.11726 12.0536C6.16063 13.125 4.51522 13.2015 3.48206 12.2449C2.41063 11.2883 2.3341 9.64286 3.29073 8.60969C3.55859 8.26531 11.0586 0 25.8673 0C40.6377 0 48.1759 8.26531 48.4821 8.60969C49.1708 9.375 49.3239 10.4464 48.903 11.4031C48.4821 12.3214 47.5637 12.9337 46.5688 12.9337Z" fill="#BAC7E5"/>
<path d="M73.6991 52.3087V63.3673H49.1328V37.5H50.4338C50.4338 36.0842 51.5818 34.9362 53.0359 34.8979H64.7451C65.5869 34.8979 66.3522 35.3954 66.6966 36.1607L73.2782 50.2041C73.5461 50.8546 73.6991 51.5816 73.6991 52.3087Z" fill="#D0DBF7"/>
<path d="M66.5816 47.8316L63.2142 40.5994C63.0612 40.2933 62.755 40.0637 62.4107 40.0637H56.9387C56.2117 40.0637 55.6377 40.6377 55.6377 41.3647V47.8316C55.6377 48.5586 56.2117 49.1326 56.9387 49.1326H65.778C66.4285 49.1326 66.8494 48.4438 66.5816 47.8316Z" fill="#4C7AF0"/>
<path d="M50.4336 63.3674V32.3342C50.4336 30.9184 49.2857 29.7322 47.8316 29.7322H25.8482H3.86474C2.44892 29.7322 1.2627 30.8801 1.2627 32.3342V63.3674H50.4336Z" fill="#1F56E5"/>
<path d="M1.30102 62.0664H73.699C74.426 62.0664 75 62.6404 75 63.3674V67.2322C75 67.9593 74.426 68.5332 73.699 68.5332H1.30102C0.57398 68.5332 0 67.9593 0 67.2322V63.3674C0 62.6404 0.57398 62.0664 1.30102 62.0664Z" fill="#E6ECFF"/>
<path d="M67.232 67.2322C67.232 71.5179 63.7499 75.0001 59.4641 75.0001C55.1784 75.0001 51.6963 71.5179 51.6963 67.2322C51.6963 62.9465 55.1784 59.4644 59.4641 59.4644C63.7499 59.4644 67.232 62.9465 67.232 67.2322Z" fill="#4C7AF0"/>
<path d="M62.0664 67.2322C62.0664 68.648 60.9184 69.8342 59.4643 69.8342C58.0485 69.8342 56.8623 68.6863 56.8623 67.2322C56.8623 65.8164 58.0103 64.6301 59.4643 64.6301C60.9184 64.6684 62.0664 65.8164 62.0664 67.2322Z" fill="#BAC7E5"/>
<path d="M20.7017 67.2322C20.7017 71.5179 17.2196 75.0001 12.9339 75.0001C8.64816 75.0001 5.16602 71.5179 5.16602 67.2322C5.16602 62.9465 8.64816 59.4644 12.9339 59.4644C17.2196 59.4644 20.7017 62.9465 20.7017 67.2322Z" fill="#4C7AF0"/>
<path d="M15.5356 67.2322C15.5356 68.648 14.3877 69.8342 12.9336 69.8342C11.5178 69.8342 10.3315 68.6863 10.3315 67.2322C10.3315 65.8164 11.4795 64.6301 12.9336 64.6301C14.3494 64.6684 15.5356 65.8164 15.5356 67.2322Z" fill="#BAC7E5"/>
<path d="M58.2017 55.5996H56.9006C56.1736 55.5996 55.5996 55.0256 55.5996 54.2986C55.5996 53.5715 56.1736 52.9976 56.9006 52.9976H58.2017C58.9287 52.9976 59.5027 53.5715 59.5027 54.2986C59.4644 55.0256 58.8904 55.5996 58.2017 55.5996Z" fill="#BAC7E5"/>
</svg>
