<svg width="31" height="31" viewBox="0 0 31 31" fill="none" xmlns="http://www.w3.org/2000/svg">
<path d="M1.00851 6.39008L1.00855 6.38999C1.3228 5.85514 1.88927 5.35816 2.56588 4.9114C3.24336 4.46405 4.03571 4.06419 4.80683 3.7251C6.34878 3.04704 7.81074 2.60985 8.11076 2.52097C8.46809 2.41175 8.8386 2.61662 8.94869 2.95803C8.94873 2.95816 8.94877 2.95829 8.94881 2.95842L11.3149 9.90405L11.3149 9.90428C11.4248 10.2321 11.2735 10.5872 10.9582 10.7372L10.9581 10.7372L8.06681 12.1C8.74069 15.7458 10.253 19.0427 12.5543 21.9416L15.4062 20.6047C15.4063 20.6046 15.4063 20.6046 15.4064 20.6046C15.7224 20.4544 16.0927 20.5644 16.284 20.8633L16.2844 20.8639L20.1519 27.1018L20.1521 27.102C20.3435 27.4148 20.2622 27.8242 19.9598 28.0296C19.8657 28.0963 18.7456 28.8491 17.3321 29.586C16.624 29.9551 15.8414 30.3208 15.0766 30.5942C14.3124 30.8674 13.5627 31.0499 12.9214 31.0499C12.7537 31.0499 12.5856 31.0371 12.43 31.0113C12.4299 31.0113 12.4299 31.0113 12.4298 31.0112L1.00851 6.39008ZM1.00851 6.39008C0.390993 7.44565 0.216103 8.91494 0.198585 10.1488C0.181213 11.3723 0.318597 12.3733 0.339966 12.529L0.340304 12.5315C0.672196 18.4643 3.11984 23.7513 7.42788 27.8337L1.00851 6.39008ZM15.4594 22.1057L18.6541 27.264C17.9437 27.7099 16.9099 28.3084 15.8613 28.7989C14.7895 29.3002 13.7107 29.6846 12.9469 29.6846C12.8493 29.6846 12.7637 29.6725 12.6746 29.6599C11.6896 29.4975 10.6393 28.8153 9.82782 28.1646C9.06804 27.5553 8.52506 26.9799 8.44916 26.8995C8.44415 26.8942 8.44118 26.8911 8.44031 26.8902L8.42123 26.8712L8.40215 26.8522L8.40216 26.8522L8.40117 26.8513C4.31433 23.0013 2.00455 18.016 1.71233 12.4115V12.4114C1.71233 12.3749 1.71233 12.3437 1.69859 12.3005C1.6721 12.0959 1.5598 11.1997 1.57238 10.1517C1.58509 9.09306 1.72528 7.89004 2.20151 7.0861L2.20168 7.08581C2.38072 6.7788 2.71484 6.46747 3.14849 6.16368C3.58126 5.86051 4.10904 5.56764 4.6706 5.29628C5.77424 4.76296 7.00419 4.31468 7.89003 4.03563L9.84448 9.76738L7.02336 11.0892C7.02323 11.0893 7.02309 11.0893 7.02296 11.0894C6.74846 11.2125 6.58342 11.5126 6.6383 11.814C7.32679 16.0107 9.12434 19.9539 11.8525 23.2251L11.8525 23.2251L11.8535 23.2262C12.058 23.4567 12.3868 23.5394 12.6755 23.4028C12.6755 23.4028 12.6756 23.4028 12.6756 23.4027L15.4594 22.1057Z" fill="#444444" stroke="#444444" stroke-width="0.1"/>
<path d="M18.8363 17.0929L18.8363 17.0929L18.8373 17.0938C18.9743 17.2165 19.1391 17.271 19.3032 17.271C19.4917 17.271 19.6741 17.204 19.7878 17.0371C20.2411 16.5459 20.4626 15.8803 20.5108 15.1953C20.559 14.5089 20.4337 13.7989 20.189 13.2161C19.9041 12.5336 19.3709 11.9978 18.7642 11.6376C18.1577 11.2776 17.4741 11.091 16.8843 11.1103L16.8841 11.1103C16.5135 11.124 16.2116 11.4377 16.2254 11.82L16.2254 11.8201C16.2391 12.1894 16.5549 12.4892 16.9386 12.4755L16.9387 12.4755C17.2766 12.4633 17.6965 12.586 18.0737 12.8117C18.4507 13.0373 18.7788 13.3621 18.939 13.748L18.939 13.748L18.9391 13.7484C19.0951 14.1145 19.1798 14.5816 19.1642 15.0224C19.1485 15.4644 19.0322 15.871 18.7959 16.124L18.7959 16.124L18.7946 16.1255C18.5489 16.4106 18.5616 16.8334 18.8363 17.0929ZM16.9369 12.4256C16.5807 12.4382 16.288 12.1599 16.2753 11.8182L18.9851 13.7288C18.6544 12.9317 17.6366 12.4003 16.9369 12.4256Z" fill="#444444" stroke="#444444" stroke-width="0.1"/>
<path d="M23.0588 17.9573L23.0588 17.9573C23.803 17.2172 24.183 15.9636 24.248 14.631C24.3128 13.2997 24.0625 11.9008 23.5581 10.8786L23.558 10.8784C22.5222 8.75515 20.3756 7.32568 18.2468 7.31309L23.0588 17.9573ZM23.0588 17.9573L23.0579 17.9582M23.0588 17.9573L23.0579 17.9582M23.0579 17.9582C22.7979 18.2304 22.7977 18.6527 23.0575 18.9251M23.0579 17.9582L23.0575 18.9251M23.0575 18.9251C23.1826 19.0631 23.3619 19.1309 23.5394 19.1309C23.7137 19.1309 23.894 19.0776 24.0207 18.9384L23.0575 18.9251Z" fill="#444444" stroke="#444444" stroke-width="0.1"/>
<path d="M27.6516 19.6021L27.6506 19.6031C27.3906 19.8753 27.3904 20.2976 27.6501 20.57C27.7752 20.708 27.9546 20.7758 28.132 20.7758C28.3102 20.7758 28.4889 20.7076 28.6261 20.558C30.1197 19.0783 30.8659 16.7619 31.0078 14.3454C31.1498 11.9276 30.6875 9.40096 29.7545 7.49427C27.8514 3.59449 23.8786 0.962744 19.8757 0.937306V0.937305H19.8754C19.5052 0.937305 19.1893 1.23715 19.1893 1.61995C19.1893 1.9888 19.4911 2.30259 19.8754 2.30259V2.25259L19.8752 2.30259C23.3524 2.31517 26.8349 4.64289 28.5196 8.09477C29.3423 9.78784 29.7515 12.0472 29.6406 14.1943C29.5295 16.3425 28.8985 18.3683 27.6516 19.6021Z" fill="#444444" stroke="#444444" stroke-width="0.1"/>
</svg>
