<svg width="125" height="143" viewBox="0 0 125 143" fill="none" xmlns="http://www.w3.org/2000/svg">
<path d="M124.064 111.236C124.263 111.78 123.984 112.39 123.443 112.591L41.6071 142.935C41.0659 143.135 40.4597 142.854 40.2604 142.31L0.0638906 32.6436C-0.135382 32.0992 0.1436 31.4895 0.684783 31.2891L82.521 0.945123C83.0621 0.744694 83.6684 1.0253 83.8676 1.56962L124.064 111.236Z" fill="#4866C9"/>
<path d="M114.222 106.342C114.422 106.886 114.143 107.496 113.601 107.696L45.9357 132.786C45.3945 132.986 44.7883 132.705 44.589 132.161L9.90715 37.5383C9.70788 36.994 9.98686 36.3843 10.528 36.1838L78.1938 11.0943C78.735 10.8939 79.3412 11.1745 79.5405 11.7188L114.222 106.342Z" fill="white"/>
<path d="M56.8786 22.9332C57.0779 23.4776 56.7989 24.0873 56.2577 24.2877L35.7295 31.8998C35.1883 32.1003 34.5821 31.8197 34.3828 31.2753L30.9721 21.9691C30.7728 21.4248 31.0518 20.815 31.593 20.6146L52.1213 13.0025C52.6624 12.8021 53.2686 13.0827 53.4679 13.627L56.8786 22.9332Z" fill="#909DC4"/>
<path d="M54.4881 20.2692L34.4834 27.6866L34.6496 28.14L54.6542 20.7226L54.4881 20.2692Z" fill="#6A78A1"/>
<path d="M55.1687 22.1247L35.1641 29.5421L35.3302 29.9954L55.3349 22.578L55.1687 22.1247Z" fill="#6A78A1"/>
<path d="M60.3219 15.2473C60.5212 15.7916 60.2422 16.4014 59.701 16.6018L28.1498 28.3005C27.6086 28.501 27.0024 28.2204 26.8031 27.676L24.6269 21.737C24.4276 21.1927 24.7066 20.5829 25.2478 20.3825L56.7979 8.68377C57.3391 8.48334 57.9453 8.76394 58.1446 9.30827L60.3219 15.2473Z" fill="#2A449C"/>
<path d="M77.8552 24.9025L19.6982 46.4662L20.4637 48.5547L78.6207 26.9909L77.8552 24.9025Z" fill="#2A449C"/>
<path d="M69.0102 38.9388L33.2671 52.1827L33.4121 52.5787L69.1553 39.3348L69.0102 38.9388Z" fill="#7D8399"/>
<path d="M78.6628 41.5261L27.5913 60.4572L27.7001 60.7541L78.7716 41.823L78.6628 41.5261Z" fill="#7D8399"/>
<path d="M79.8626 44.7905L28.79 63.7219L28.8988 64.0189L79.9714 45.0874L79.8626 44.7905Z" fill="#7D8399"/>
<path d="M81.0574 48.0577L29.9858 66.9888L30.0946 67.2857L81.1662 48.3546L81.0574 48.0577Z" fill="#7D8399"/>
<path d="M82.2541 51.3237L31.1826 70.2548L31.2914 70.5517L82.3629 51.6206L82.2541 51.3237Z" fill="#7D8399"/>
<path d="M83.4529 54.5885L32.3813 73.5195L32.4902 73.8165L83.5617 54.8854L83.4529 54.5885Z" fill="#7D8399"/>
<path d="M84.6487 57.8554L33.5771 76.7865L33.686 77.0834L84.7575 58.1524L84.6487 57.8554Z" fill="#7D8399"/>
<path d="M85.8484 61.1206L34.7759 80.052L34.8847 80.3489L85.9572 61.4175L85.8484 61.1206Z" fill="#7D8399"/>
<path d="M87.0432 64.3895L35.9707 83.3209L36.0795 83.6179L87.152 64.6864L87.0432 64.3895Z" fill="#7D8399"/>
</svg>
