<svg width="62" height="76" viewBox="0 0 62 76" fill="none" xmlns="http://www.w3.org/2000/svg">
<path d="M1.41985 0H60.5802C61.3374 0 62 0.57209 62 1.32021V74.6798C62 75.3839 61.3847 76 60.5802 76H1.41985C0.662595 76 0 75.4279 0 74.6798V1.32021C0 0.57209 0.615267 0 1.41985 0Z" fill="#D0DBF7"/>
<path d="M56 11.4358V64.5642C56 65.1856 55.5327 65.7182 54.8785 65.8514C52.729 66.2952 51 67.8931 50.5794 69.9348C50.4393 70.5562 49.8785 71 49.2243 71H12.7757C12.1215 71 11.5607 70.5562 11.4206 69.9348C10.9533 67.8931 9.27103 66.2508 7.1215 65.8514C6.46729 65.7182 6 65.1856 6 64.5642V11.4358C6 10.8144 6.46729 10.2818 7.1215 10.1486C9.27103 9.70477 11 8.10693 11.4206 6.06523C11.5607 5.44385 12.1215 5 12.7757 5H49.2243C49.8785 5 50.4393 5.44385 50.5794 6.06523C51.0467 8.10693 52.729 9.74916 54.8785 10.1486C55.486 10.2374 56 10.77 56 11.4358Z" fill="#E6ECFF"/>
<path d="M19.3428 37.74L14.4388 44.6358C13.9163 45.3617 14.5192 46.3295 15.4035 46.2085L18.9006 45.644L19.4634 49.1523C19.584 50.0395 20.7497 50.3218 21.232 49.5556L26.3772 42.2969L21.433 37.9416L19.3428 37.74Z" fill="#4C7AF0"/>
<path d="M42.6571 37.7803L47.5611 44.6358C48.0836 45.3616 47.4807 46.3295 46.5963 46.2085L43.0993 45.6439L42.5365 49.1523C42.4159 50.0395 41.2502 50.3218 40.7679 49.5556L35.5825 42.3371L40.5669 37.9819L42.6571 37.7803Z" fill="#4C7AF0"/>
<path d="M45.7521 30.7231C45.109 31.5699 44.8276 32.6184 44.9884 33.6266C45.2296 35.4009 44.2648 37.0946 42.6168 37.7802C41.6521 38.1835 40.8883 38.9497 40.4864 39.9175C39.8834 41.3692 38.4766 42.3371 36.8687 42.3371C36.7079 42.3371 36.5069 42.3371 36.3461 42.2967C35.301 42.1354 34.2559 42.4581 33.452 43.0629C32.0451 44.1518 30.0755 44.1518 28.7088 43.0629C27.9049 42.4177 26.8598 42.1354 25.8147 42.2967C24.046 42.5387 22.3578 41.5709 21.6744 39.9175C21.2725 38.9497 20.5087 38.1835 19.544 37.7802C18.097 37.1753 17.1322 35.7639 17.1322 34.1508C17.1322 33.9895 17.1322 33.7879 17.1724 33.6266C17.3332 32.5781 17.0117 31.5296 16.4087 30.7231C15.3234 29.3117 15.3234 27.3357 16.4087 25.9646C17.0518 25.158 17.3332 24.1096 17.1724 23.0611C16.9313 21.2867 17.896 19.593 19.544 18.9075C20.5087 18.5042 21.2725 17.738 21.6744 16.7702C22.2774 15.3184 23.6843 14.3506 25.2921 14.3506C25.4529 14.3506 25.6539 14.3506 25.8147 14.3909C26.8598 14.5522 27.9049 14.2699 28.7088 13.6247C30.1157 12.5359 32.0853 12.5359 33.452 13.6247C34.2559 14.2699 35.3412 14.5522 36.3461 14.3909C38.1148 14.149 39.803 15.1168 40.4864 16.7702C40.8883 17.738 41.6521 18.5042 42.6168 18.9075C44.0639 19.5124 45.0286 20.9238 45.0286 22.5368C45.0286 22.6981 45.0286 22.8998 44.9884 23.0611C44.8276 24.1096 45.1492 25.158 45.7521 25.9646C46.8374 27.376 46.8374 29.3117 45.7521 30.7231Z" fill="#1F56E5"/>
<path d="M22.6392 32.1749V24.5129C22.6392 23.666 23.1215 22.8595 23.8451 22.4562L29.8343 19.0688C30.5579 18.6655 31.4422 18.6655 32.2059 19.0688L38.1952 22.4562C38.9589 22.8595 39.4011 23.666 39.4011 24.5129V32.2152C39.4011 33.062 38.9187 33.8686 38.1952 34.2718L32.2059 37.6592C31.4824 38.0625 30.5981 38.0625 29.8343 37.6592L23.8451 34.2718C23.0813 33.8686 22.6392 33.062 22.6392 32.1749Z" fill="#4294FF"/>
<path d="M39.4718 57.2004H22.5282C21.771 57.2004 21.1084 56.5832 21.1084 55.776C21.1084 55.0163 21.7237 54.3516 22.5282 54.3516H39.4244C40.1817 54.3516 40.8443 54.9688 40.8443 55.776C40.8443 56.5832 40.229 57.2004 39.4718 57.2004Z" fill="#D0DBF7"/>
<path d="M36.6322 62.8506H25.3681C24.6108 62.8506 23.9482 62.2333 23.9482 61.4261C23.9482 60.6664 24.5635 60.0017 25.3681 60.0017H36.6322C37.3895 60.0017 38.0521 60.619 38.0521 61.4261C38.0521 62.2333 37.3895 62.8506 36.6322 62.8506Z" fill="#D0DBF7"/>
</svg>
