<svg width="64" height="75" viewBox="0 0 64 75" fill="none" xmlns="http://www.w3.org/2000/svg">
<path d="M63.9403 61.4702V61.5153L46.7124 74.955V61.4702H63.9403Z" fill="#BAC7E5"/>
<path d="M59.1182 0H3.83069C2.80917 0 1.83873 0.348635 1.12367 0.958745C0.408607 1.56886 0 2.39686 0 3.26845V71.7315C0 72.6031 0.408607 73.4311 1.12367 74.0412C1.83873 74.6514 2.80917 75 3.83069 75H46.7277V61.9698H63V3.26845C63 2.39686 62.5914 1.56886 61.8763 0.958745C61.1102 0.348635 60.1397 0 59.1182 0ZM48.0741 31.5798L31.4745 37.1144L14.8748 31.5798V14.6426L31.4745 9.15698L48.0741 14.6426V31.5798Z" fill="#D0DBF7"/>
<path d="M48.1145 46.7373H14.8856C13.8121 46.7373 12.9941 45.9706 12.9941 45.0686C12.9941 44.1215 13.8632 43.3999 14.8856 43.3999H48.1657C48.6769 43.3999 49.137 43.5803 49.4948 43.896C49.8527 44.2117 50.0572 44.6176 50.0572 45.0686C50.0572 45.5196 49.8527 45.9255 49.4948 46.2412C49.137 46.5569 48.6258 46.7373 48.1145 46.7373Z" fill="#4C7AF0"/>
<path d="M48.1145 54.3139H14.8856C13.8121 54.3139 12.9941 53.5472 12.9941 52.6452C12.9941 51.6982 13.8632 50.9766 14.8856 50.9766H48.1657C49.2392 50.9766 50.0572 51.7433 50.0572 52.6452C50.0572 53.5472 49.1881 54.3139 48.1145 54.3139Z" fill="#4C7AF0"/>
<path d="M31.5001 61.8908H14.8856C13.8121 61.8908 12.9941 61.1241 12.9941 60.2221C12.9941 59.2751 13.8632 58.5535 14.8856 58.5535H31.5001C32.5736 58.5535 33.3916 59.3202 33.3916 60.2221C33.3916 61.1241 32.5736 61.8908 31.5001 61.8908Z" fill="#4C7AF0"/>
<path d="M31.5 19.6972V39.2443L48.2167 33.9133V14.3662L31.5 19.6972Z" fill="#2946ED"/>
<path d="M14.7832 14.3662V33.9133L31.4999 39.2443V19.6972L14.7832 14.3662Z" fill="#376CFB"/>
<path d="M14.7832 14.3662L31.4999 19.6972L48.2166 14.3662L31.4999 9.03516L14.7832 14.3662Z" fill="#4294FF"/>
</svg>
