<svg width="75" height="75" viewBox="0 0 75 75" fill="none" xmlns="http://www.w3.org/2000/svg">
<path d="M54.2847 33.6133C45.9031 33.6133 38.39 38.6509 35.1764 46.3811C31.9627 54.1113 33.7433 63.014 39.6494 68.9202C45.5556 74.8264 54.4584 76.6069 62.1885 73.3932C69.9187 70.1796 74.9563 62.6666 74.9563 54.285C74.9998 42.8634 65.7062 33.6133 54.2847 33.6133ZM54.2847 69.8322C48.031 69.8322 42.342 66.0539 39.9534 60.2346C37.5649 54.4152 38.8677 47.7708 43.2974 43.3411C47.727 38.9115 54.4149 37.5652 60.1909 39.9972C65.9668 42.3857 69.7884 48.0748 69.7884 54.3284C69.8318 62.8837 62.8834 69.8322 54.2847 69.8322Z" fill="#D0DBF7"/>
<path d="M69.8322 54.2848C69.8322 62.8401 62.8838 69.7885 54.3285 69.7885C45.7732 69.7885 38.8247 62.8401 38.8247 54.2848C38.8247 45.7295 45.7732 38.781 54.3285 38.781C62.8838 38.781 69.8322 45.7295 69.8322 54.2848Z" fill="#E6ECFF"/>
<path d="M10.3359 59.4528L23.2774 72.3943L28.4453 67.2264L15.5038 54.2849H23.2774V49.1169H5.16797V67.2264H10.3359V59.4528Z" fill="#4C7AF0"/>
<path d="M51.7226 20.6717V25.8396H69.8321V7.77363H64.6641V15.5038L51.7226 2.60571L46.5547 7.77363L59.4962 20.7152H51.7226V20.6717Z" fill="#D0DBF7"/>
<path d="M41.3868 20.6717C41.3868 32.0932 32.1367 41.3434 20.7151 41.3434C9.29357 41.3434 0 32.0932 0 20.6717C0 9.25014 9.25014 0 20.6717 0C32.0932 0 41.3868 9.25014 41.3868 20.6717Z" fill="#4C7AF0"/>
<path d="M36.219 20.6717C36.219 29.227 29.2705 36.1755 20.7152 36.1755C12.1599 36.1755 5.21143 29.227 5.21143 20.6717C5.21143 12.1164 12.1599 5.16797 20.7152 5.16797C29.2705 5.16797 36.219 12.1164 36.219 20.6717Z" fill="#4294FF"/>
<path d="M27.1422 24.4065V16.9369L20.6714 13.2021L14.2007 16.9369V24.4065L20.6714 28.1413L27.1422 24.4065Z" fill="#1F56E5"/>
<path d="M60.2344 60.582H56.3259L54.2848 53.9376L52.1134 60.582H48.2049L45.2518 50.7239C44.8609 49.5079 45.4689 48.3788 46.5546 48.1617C47.6837 47.9011 48.7694 48.2919 49.1168 49.5513L50.6368 54.9798L52.5042 49.7251C52.8082 48.6828 53.5031 48.2485 54.2848 48.2485C55.1099 48.2485 55.8482 48.5959 56.1522 49.7251L58.0196 55.0233L59.4961 49.5079C59.8001 48.2485 60.7989 47.9011 61.9715 48.1182C63.0572 48.3354 63.5349 49.5079 63.1875 50.7239L60.2344 60.582Z" fill="#BAC7E5"/>
<path d="M63.3177 56.6301H60.3211C59.3657 56.6301 58.6274 55.8484 58.6274 54.9364C58.6274 53.981 59.4091 53.2427 60.3211 53.2427H63.3177C64.2731 53.2427 65.0113 54.0244 65.0113 54.9364C65.0113 55.8484 64.2296 56.6301 63.3177 56.6301Z" fill="#BAC7E5"/>
<path d="M48.2918 56.6301H45.2953C44.3398 56.6301 43.6016 55.8484 43.6016 54.9364C43.6016 53.981 44.3833 53.2427 45.2953 53.2427H48.2918C49.2472 53.2427 49.9855 54.0244 49.9855 54.9364C50.0289 55.8484 49.2472 56.6301 48.2918 56.6301Z" fill="#BAC7E5"/>
</svg>
