<svg width="54" height="41" viewBox="0 0 54 41" fill="none" xmlns="http://www.w3.org/2000/svg">
<path d="M4.05109 34.7128H36.6629C36.9063 34.7128 37.1466 34.6217 37.3269 34.486C37.5048 34.352 37.6413 34.1605 37.6413 33.9513C37.6413 33.3371 37.1493 32.9692 36.6629 32.9692H4.05109C2.79211 32.9692 1.8452 31.9149 1.8452 30.7538V4.07177C1.8452 2.80661 2.89575 1.85639 4.05109 1.85639H42.7021C43.961 1.85639 44.908 2.91067 44.908 4.07177V22.7051C44.908 23.3193 45.3999 23.6872 45.8864 23.6872C46.499 23.6872 46.8648 23.1926 46.8648 22.7051V4.07177C46.8648 1.8118 45.0636 0.00253906 42.8119 0.00253906H4.05109C1.79939 0.00253906 -0.00185547 1.8118 -0.00185547 4.07177V30.6436C-0.00185547 32.9035 1.79939 34.7128 4.05109 34.7128Z" fill="white" stroke="white" stroke-width="0.2"/>
<path d="M22.7657 20.7991L22.7736 20.8053L22.7826 20.8099C22.8347 20.836 22.8805 20.8622 22.9249 20.888C22.9283 20.8899 22.9316 20.8919 22.935 20.8938C22.9753 20.9172 23.0161 20.9409 23.0571 20.9615C23.1493 21.0078 23.2471 21.041 23.3765 21.041C23.4185 21.041 23.4638 21.0309 23.5076 21.018C23.5526 21.0048 23.6036 20.9865 23.6588 20.9657C23.6856 20.9556 23.7137 20.9448 23.743 20.9336C23.8365 20.8977 23.9435 20.8567 24.0671 20.8153L24.0831 20.81L24.0965 20.7996L28.3788 17.4919L28.3793 17.4926L28.3886 17.4834C28.5681 17.3031 28.6886 17.0624 28.7189 16.8188C28.7494 16.5737 28.6887 16.3206 28.4984 16.1294C28.3188 15.9492 28.079 15.8281 27.836 15.7976C27.5937 15.7671 27.3435 15.8269 27.1537 16.0143L23.486 18.8305L19.9233 16.1204L19.9233 16.1204L19.923 16.1201C19.6851 15.941 19.4396 15.8764 19.2044 15.9079C18.9714 15.9391 18.76 16.063 18.5841 16.2397L18.5791 16.2447L18.5748 16.2504C18.3965 16.4892 18.3324 16.7354 18.3637 16.9712C18.3947 17.2049 18.5179 17.4169 18.6939 17.5936L18.6934 17.5941L18.7029 17.6016L22.7657 20.7991Z" fill="white" stroke="white" stroke-width="0.2"/>
<path d="M1.34515 33.691L1.35661 33.7026L1.37114 33.7099L1.38265 33.7156C1.59357 33.8216 1.83135 33.941 2.07483 33.941C2.11686 33.941 2.16221 33.9308 2.20528 33.9177C2.24959 33.9041 2.2979 33.8854 2.34769 33.8639C2.44649 33.8214 2.55846 33.7652 2.66696 33.7107L2.66872 33.7099L2.68099 33.7037L2.69115 33.6944L20.2598 17.7073L20.2736 17.6947L20.282 17.6779L20.2877 17.6664C20.3932 17.4545 20.5121 17.216 20.5121 16.9718C20.5121 16.6236 20.3962 16.3618 20.1392 16.2268L2.68955 1.01946L2.68002 1.01115L2.66872 1.00548C2.20565 0.772992 1.71525 0.762915 1.34515 1.13454C1.15477 1.3257 1.09411 1.57886 1.12461 1.82387C1.15495 2.06755 1.27544 2.30823 1.45495 2.48849L1.45478 2.48866L1.46009 2.49329L18.0661 16.9737L1.34835 32.334L1.34828 32.334L1.34515 32.3371C0.976878 32.7069 0.976878 33.3213 1.34515 33.691Z" fill="white" stroke="white" stroke-width="0.2"/>
<path d="M1.34515 33.691L1.35661 33.7025L1.37114 33.7098L1.38263 33.7156C1.59356 33.8215 1.83135 33.941 2.07483 33.941C2.11686 33.941 2.16221 33.9308 2.20528 33.9177C2.24959 33.9041 2.2979 33.8853 2.34769 33.8639C2.44652 33.8214 2.55851 33.7652 2.66705 33.7107L2.66872 33.7098L2.68137 33.7035L2.69177 33.6939L19.4295 18.2053L22.7664 20.7994L22.7662 20.7996L22.7721 20.8036C22.9499 20.9226 23.1336 20.9858 23.3219 20.9858C23.5101 20.9858 23.6939 20.9226 23.8716 20.8036L23.8718 20.8038L23.8777 20.7991L27.3216 18.0976L36.2628 27.0756C36.6313 27.4457 37.2439 27.4457 37.6124 27.0756C37.9806 26.7059 37.9806 26.0915 37.6124 25.7217L28.1692 16.2396C27.8028 15.8717 27.3099 15.8724 26.9447 16.1168L26.9446 16.1167L26.9398 16.1204L23.3775 18.8302L20.0391 16.235C19.853 16.0507 19.6333 15.9882 19.4167 16.0037C19.2019 16.0191 18.9932 16.1106 18.8192 16.2271L18.8127 16.2314L18.807 16.2367L1.34822 32.3341L1.34816 32.3341L1.34515 32.3371C0.976878 32.7069 0.976878 33.3212 1.34515 33.691Z" fill="white" stroke="white" stroke-width="0.2"/>
<path d="M26.9345 16.0143L26.9343 16.0141L26.9293 16.0192C26.7497 16.1994 26.6292 16.4401 26.5989 16.6838C26.5684 16.9288 26.6291 17.182 26.8194 17.3731C27.0499 17.6045 27.2935 17.7333 27.5491 17.7333C27.6785 17.7333 27.7763 17.7001 27.8685 17.6538C27.9095 17.6332 27.9503 17.6095 27.9907 17.5861L28.0007 17.5803C28.0452 17.5546 28.091 17.5283 28.143 17.5022L28.1543 17.4965L28.1638 17.4883L45.403 2.49339L45.4032 2.49358L45.4082 2.4885C45.5877 2.30825 45.7082 2.06757 45.7386 1.82388C45.7691 1.57887 45.7084 1.32571 45.518 1.13455C45.3385 0.954296 45.0987 0.833187 44.8557 0.802689C44.6124 0.772155 44.3612 0.83251 44.1711 1.02167L26.9345 16.0143Z" fill="white" stroke="white" stroke-width="0.2"/>
<path d="M35.7997 33.9837C37.021 37.8821 40.5721 40.5564 44.6786 40.5564C49.8958 40.5564 54.0021 36.3207 54.0021 31.1949C54.0021 26.0683 49.7852 21.8333 44.6786 21.8333C41.4587 21.8333 38.3521 23.6162 36.6872 26.4021C35.7988 27.8518 35.3551 29.5237 35.3551 31.1949C35.3551 32.0831 35.4654 33.0873 35.7997 33.9837ZM37.2021 31.1949C37.2021 29.8938 37.6342 28.5876 38.2876 27.3845C39.5872 25.1015 42.0789 23.6872 44.6786 23.6872C48.7955 23.6872 52.1551 27.06 52.1551 31.1949C52.1551 35.3298 48.7955 38.7026 44.6786 38.7026C41.4272 38.7026 38.5026 36.6353 37.5274 33.4818C37.3105 32.7189 37.2021 31.9567 37.2021 31.1949Z" fill="#6892FF" stroke="#6892FF" stroke-width="0.2"/>
<path d="M40.636 31.5702L40.6357 31.5703L40.6397 31.5769L42.9401 35.4267C43.0006 35.6032 43.0941 35.7315 43.2253 35.8139C43.3572 35.8966 43.5156 35.9256 43.6902 35.9256C44.0614 35.9256 44.3076 35.6783 44.519 35.4659L44.5297 35.4552L44.5393 35.4455L44.546 35.4336L48.8266 27.829C49.0757 27.4495 48.9491 26.8363 48.4622 26.5878C48.0826 26.3386 47.4717 26.4677 47.2256 26.9577L43.6881 33.0933L42.2406 30.7055C42.1198 30.4651 41.9351 30.3077 41.7139 30.2442C41.4929 30.1808 41.2473 30.2146 41.0101 30.3337C40.7684 30.455 40.6104 30.6413 40.547 30.8643C40.4839 31.0859 40.5175 31.3321 40.636 31.5702Z" fill="#6892FF" stroke="#6892FF" stroke-width="0.2"/>
</svg>
