<svg width="51" height="49" viewBox="0 0 51 49" fill="none" xmlns="http://www.w3.org/2000/svg">
<path d="M6.75128 17.2517L6.75107 17.2516V17.258V17.2586V17.2592V17.2598V17.2604V17.261V17.2616V17.2621V17.2627V17.2633V17.2639V17.2645V17.265V17.2656V17.2662V17.2667V17.2673V17.2678V17.2684V17.269V17.2695V17.2701V17.2706V17.2712V17.2717V17.2723V17.2728V17.2733V17.2739V17.2744V17.2749V17.2755V17.276V17.2765V17.2771V17.2776V17.2781V17.2786V17.2791V17.2796V17.2802V17.2807V17.2812V17.2817V17.2822V17.2827V17.2832V17.2837V17.2842V17.2847V17.2852V17.2857V17.2862V17.2866V17.2871V17.2876V17.2881V17.2886V17.2891V17.2895V17.29V17.2905V17.2909V17.2914V17.2919V17.2924V17.2928V17.2933V17.2937V17.2942V17.2947V17.2951V17.2956V17.296V17.2965V17.2969V17.2974V17.2978V17.2983V17.2987V17.2991V17.2996V17.3V17.3005V17.3009V17.3013V17.3018V17.3022V17.3026V17.303V17.3035V17.3039V17.3043V17.3047V17.3051V17.3056V17.306V17.3064V17.3068V17.3072V17.3076V17.308V17.3084V17.3089V17.3093V17.3097V17.3101V17.3105V17.3109V17.3113V17.3117V17.3121V17.3124V17.3128V17.3132V17.3136V17.314V17.3144V17.3148V17.3152V17.3156V17.3159V17.3163V17.3167V17.3171V17.3175V17.3178V17.3182V17.3186V17.319V17.3193V17.3197V17.3201V17.3204V17.3208V17.3212V17.3215V17.3219V17.3223V17.3226V17.323V17.3233V17.3237V17.3241V17.3244V17.3248V17.3251V17.3255V17.3258V17.3262V17.3265V17.3269V17.3272V17.3276V17.3279V17.3283V17.3286V17.329V17.3293V17.3296V17.33V17.3303V17.3307V17.331V17.3313V17.3317V17.332V17.3324V17.3327V17.333V17.3334V17.3337V17.334V17.3343V17.3347V17.335V17.3353V17.3357V17.336V17.3363V17.3366V17.337V17.3373V17.3376V17.3379V17.3383V17.3386V17.3389V17.3392V17.3395V17.3399V17.3402V17.3405V17.3408V17.3411V17.3414V17.3418V17.3421V17.3424V17.3427V17.343V17.3433V17.3436V17.344V17.3443V17.3446V17.3449V17.3452V17.3455V17.3458V17.3461V17.3464V17.3467V17.347V17.3474V17.3477V17.348V17.3483V17.3486V17.3489V17.3492V17.3495V17.3498V17.3501V17.3504V17.3507V17.351V17.3513V17.3516V17.3519V17.3522V17.3525V17.3528V17.3531V17.3534V17.3537V17.354V17.3543V17.3546V17.3549V17.3552V17.3555V17.3558V17.3561V17.3564V17.3567V17.357V17.3573V17.3576V17.3579V17.3582V17.3585V17.3588V17.3591V17.3594V17.3597V17.36V17.3603V17.3606V17.3609V17.3612V17.3615V17.3618V17.3621V17.3624V17.3627V17.363V17.3633V17.3636V17.3639V17.3642V17.3645V17.3648V17.3651V17.3654V17.3657V17.366V17.3663V17.3666V17.3669V17.3672V17.3675V17.3678V17.3681V17.3684V17.3687V17.369V17.3693V17.3696V17.3699V17.3702V17.3705V17.3708V17.3712V17.3715V17.3718V17.3721V17.3724V17.3727V17.373V17.3733V17.3736V17.3739V17.3742V17.3745V17.3748V17.3752V17.3755V17.3758V17.3761V17.3764V17.3767V17.377V17.3773V17.3776V17.378V17.3783V17.3786V17.3789V17.3792V17.3795V17.3799V17.3802V17.3805V17.3808V17.3811V17.3815V17.3818V17.3821V17.3824V17.3827V17.3831V17.3834V17.3837V17.384V17.3844V17.3847V17.385V17.3854V17.3857V17.386V17.3864V17.3867V17.387V17.3874V17.3877V17.388V17.3884V17.3887V17.389V17.3894V17.3897V17.3901V17.3904V17.3907V17.3911V17.3914V17.3918V17.3921V17.3925V17.3928V17.3932V17.3935V17.3939V17.3942V17.3946V17.3949V17.3953V17.3956V17.396V17.3963V17.3967V17.3971V17.3974V17.3978V17.3981V17.3985V17.3989V17.3992V17.3996V17.4V17.4003V17.4007V17.4011V17.4015V17.4018V17.4022V17.4026V17.403V17.4033V17.4037V17.4041V17.4045V17.4049V17.4053V17.4056V17.406V17.4064V17.4068V17.4072V17.4076V17.408V17.4084V17.4088V17.4092V17.4096V17.41V17.4104V17.4108V17.4112V17.4116V17.412V17.4124V17.4128V17.4132V17.4136V17.4141V17.4145V17.4149V17.4153V17.4157V17.4162V17.4166V17.417V17.4174V17.4179V17.4183V17.4187V17.4192V17.4196V17.42V17.4205V17.4209V17.4213V17.4218V17.4222V17.4227V17.4231V17.4236V17.424V17.4245V17.4249V17.4254V17.4258V17.4263V17.4268V17.4272V17.4277V17.4282V17.4286V17.4291V17.4296V17.43V17.4305V17.431V17.4315V17.4319V17.4324V17.4329V17.4334V17.4339V17.4344V17.4349V17.4354V17.4359V17.4363V17.4368V17.4374V17.4379V17.4384V17.4389V17.4394V17.4399V17.4404V17.4409V17.4414V17.4419V17.4425V17.443V17.4435V17.444V17.4446V17.4451V17.4456V17.4462V17.4467V17.4472V17.4478V17.4483V17.4489V17.4494V17.45V17.4505V17.4511V17.4516V17.4522V17.4527V17.4533V17.4539V17.4544V17.455V17.4556V17.4562V17.4567V17.4573V17.4579V17.4585V17.4591V17.4596V17.4602V17.4608V17.4614V17.462V18.278C6.75107 18.8512 7.21202 19.194 7.66676 19.194C8.23984 19.194 8.58245 18.7328 8.58245 18.278C8.58245 9.15281 15.9812 1.65002 25.204 1.65002C34.3256 1.65002 41.8256 9.05161 41.8256 18.278C41.8256 18.8512 42.2865 19.194 42.7413 19.194C42.9713 19.194 43.1773 19.1071 43.3251 18.9445C43.4723 18.7825 43.555 18.553 43.555 18.278V17.462V17.4614V17.4608V17.4602V17.4596V17.4591V17.4585V17.4579V17.4573V17.4567V17.4562V17.4556V17.455V17.4544V17.4539V17.4533V17.4527V17.4522V17.4516V17.4511V17.4505V17.45V17.4494V17.4489V17.4483V17.4478V17.4472V17.4467V17.4462V17.4456V17.4451V17.4446V17.444V17.4435V17.443V17.4425V17.4419V17.4414V17.4409V17.4404V17.4399V17.4394V17.4389V17.4384V17.4379V17.4374V17.4368V17.4363V17.4359V17.4354V17.4349V17.4344V17.4339V17.4334V17.4329V17.4324V17.4319V17.4315V17.431V17.4305V17.43V17.4296V17.4291V17.4286V17.4282V17.4277V17.4272V17.4268V17.4263V17.4258V17.4254V17.4249V17.4245V17.424V17.4236V17.4231V17.4227V17.4222V17.4218V17.4213V17.4209V17.4205V17.42V17.4196V17.4192V17.4187V17.4183V17.4179V17.4174V17.417V17.4166V17.4162V17.4157V17.4153V17.4149V17.4145V17.4141V17.4136V17.4132V17.4128V17.4124V17.412V17.4116V17.4112V17.4108V17.4104V17.41V17.4096V17.4092V17.4088V17.4084V17.408V17.4076V17.4072V17.4068V17.4064V17.406V17.4056V17.4053V17.4049V17.4045V17.4041V17.4037V17.4033V17.403V17.4026V17.4022V17.4018V17.4015V17.4011V17.4007V17.4003V17.4V17.3996V17.3992V17.3989V17.3985V17.3981V17.3978V17.3974V17.3971V17.3967V17.3963V17.396V17.3956V17.3953V17.3949V17.3946V17.3942V17.3939V17.3935V17.3932V17.3928V17.3925V17.3921V17.3918V17.3914V17.3911V17.3907V17.3904V17.3901V17.3897V17.3894V17.389V17.3887V17.3884V17.388V17.3877V17.3874V17.387V17.3867V17.3864V17.386V17.3857V17.3854V17.385V17.3847V17.3844V17.384V17.3837V17.3834V17.3831V17.3827V17.3824V17.3821V17.3818V17.3815V17.3811V17.3808V17.3805V17.3802V17.3799V17.3795V17.3792V17.3789V17.3786V17.3783V17.378V17.3776V17.3773V17.377V17.3767V17.3764V17.3761V17.3758V17.3755V17.3752V17.3748V17.3745V17.3742V17.3739V17.3736V17.3733V17.373V17.3727V17.3724V17.3721V17.3718V17.3715V17.3712V17.3708V17.3705V17.3702V17.3699V17.3696V17.3693V17.369V17.3687V17.3684V17.3681V17.3678V17.3675V17.3672V17.3669V17.3666V17.3663V17.366V17.3657V17.3654V17.3651V17.3648V17.3645V17.3642V17.3639V17.3636V17.3633V17.363V17.3627V17.3624V17.3621V17.3618V17.3615V17.3612V17.3609V17.3606V17.3603V17.36V17.3597V17.3594V17.3591V17.3588V17.3585V17.3582V17.3579V17.3576V17.3573V17.357V17.3567V17.3564V17.3561V17.3558V17.3555V17.3552V17.3549V17.3546V17.3543V17.354V17.3537V17.3534V17.3531V17.3528V17.3525V17.3522V17.3519V17.3516V17.3513V17.351V17.3507V17.3504V17.3501V17.3498V17.3495V17.3492V17.3489V17.3486V17.3483V17.348V17.3477V17.3474V17.347V17.3467V17.3464V17.3461V17.3458V17.3455V17.3452V17.3449V17.3446V17.3443V17.344V17.3436V17.3433V17.343V17.3427V17.3424V17.3421V17.3418V17.3414V17.3411V17.3408V17.3405V17.3402V17.3399V17.3395V17.3392V17.3389V17.3386V17.3383V17.3379V17.3376V17.3373V17.337V17.3366V17.3363V17.336V17.3357V17.3353V17.335V17.3347V17.3343V17.334V17.3337V17.3334V17.333V17.3327V17.3324V17.332V17.3317V17.3313V17.331V17.3307V17.3303V17.33V17.3296V17.3293V17.329V17.3286V17.3283V17.3279V17.3276V17.3272V17.3269V17.3265V17.3262V17.3258V17.3255V17.3251V17.3248V17.3244V17.3241V17.3237V17.3233V17.323V17.3226V17.3223V17.3219V17.3215V17.3212V17.3208V17.3204V17.3201V17.3197V17.3193V17.319V17.3186V17.3182V17.3178V17.3175V17.3171V17.3167V17.3163V17.3159V17.3156V17.3152V17.3148V17.3144V17.314V17.3136V17.3132V17.3128V17.3124V17.3121V17.3117V17.3113V17.3109V17.3105V17.3101V17.3097V17.3093V17.3089V17.3084V17.308V17.3076V17.3072V17.3068V17.3064V17.306V17.3056V17.3051V17.3047V17.3043V17.3039V17.3035V17.303V17.3026V17.3022V17.3018V17.3013V17.3009V17.3005V17.3V17.2996V17.2991V17.2987V17.2983V17.2978V17.2974V17.2969V17.2965V17.296V17.2956V17.2951V17.2947V17.2942V17.2937V17.2933V17.2928V17.2924V17.2919V17.2914V17.2909V17.2905V17.29V17.2895V17.2891V17.2886V17.2881V17.2876V17.2871V17.2866V17.2862V17.2857V17.2852V17.2847V17.2842V17.2837V17.2832V17.2827V17.2822V17.2817V17.2812V17.2807V17.2802V17.2796V17.2791V17.2786V17.2781V17.2776V17.2771V17.2765V17.276V17.2755V17.2749V17.2744V17.2739V17.2733V17.2728V17.2723V17.2717V17.2712V17.2706V17.2701V17.2695V17.269V17.2684V17.2678V17.2673V17.2667V17.2662V17.2656V17.265V17.2645V17.2639V17.2633V17.2627V17.2621V17.2616V17.261V17.2604V17.2598V17.2592V17.2586V17.258H43.5552L43.5548 17.2517C42.9397 7.61212 34.9442 -0.0799805 25.204 -0.0799805C15.3623 -0.0799805 7.36635 7.61177 6.75128 17.2517Z" fill="white" stroke="white" stroke-width="0.2"/>
<path d="M7.76873 37.248H11.1334C11.3699 37.248 11.598 37.1307 11.7649 36.9637C11.9319 36.7967 12.0491 36.5685 12.0491 36.332V18.686C12.0491 18.1128 11.5882 17.77 11.1334 17.77H7.76873C5.67425 17.77 3.99814 19.4468 3.99814 21.542V33.476C3.99814 35.5712 5.67425 37.248 7.76873 37.248ZM5.72756 21.542C5.72756 20.3763 6.69931 19.5 7.76873 19.5H10.3197V35.518H7.76873C6.60047 35.518 5.72756 34.6448 5.72756 33.476V21.542Z" fill="white" stroke="white" stroke-width="0.2"/>
<path d="M5.71683 34.4387L5.72738 34.4176V34.394C5.72738 33.8208 5.26643 33.478 4.81169 33.478H3.69012C2.52186 33.478 1.64894 32.6048 1.64894 31.436V23.888C1.64894 22.7223 2.6207 21.846 3.69012 21.846H4.81169C5.38477 21.846 5.72738 21.3848 5.72738 20.93C5.72738 20.3568 5.26643 20.014 4.81169 20.014H3.69012C1.59564 20.014 -0.0804688 21.6908 -0.0804688 23.786V31.334C-0.0804688 33.4292 1.59564 35.106 3.69012 35.106H4.81169C5.04991 35.106 5.25132 34.9871 5.40152 34.8505C5.55206 34.7136 5.66111 34.5502 5.71683 34.4387Z" fill="white" stroke="white" stroke-width="0.2"/>
<path d="M42.4294 36.4617L42.4294 36.4617L42.4303 36.4582C42.5435 36.0054 42.3175 35.5365 41.8477 35.419C41.3959 35.306 40.9282 35.5309 40.8096 35.9988C39.1906 41.1572 34.4381 44.596 29.0784 44.596C28.5053 44.596 28.1627 45.0572 28.1627 45.512C28.1627 46.0852 28.6236 46.428 29.0784 46.428C35.239 46.428 40.6833 42.524 42.4294 36.4617Z" fill="white" stroke="white" stroke-width="0.2"/>
<path d="M23.0646 45.614C23.0646 47.5052 24.5367 48.978 26.4273 48.978C28.2159 48.978 29.79 47.4032 29.79 45.614C29.79 43.7228 28.3179 42.25 26.4273 42.25C24.5367 42.25 23.0646 43.7228 23.0646 45.614ZM24.794 45.512C24.794 44.6492 25.5649 43.878 26.4273 43.878C27.2897 43.878 28.0606 44.6492 28.0606 45.512C28.0606 46.3748 27.2897 47.146 26.4273 47.146C25.5649 47.146 24.794 46.3748 24.794 45.512Z" fill="#6892FF" stroke="#6892FF" stroke-width="0.2"/>
<path d="M46.4094 33.481L46.4095 33.481V33.476V21.542C46.4095 19.4468 44.7334 17.77 42.6389 17.77H39.2742C38.7011 17.77 38.3585 18.2312 38.3585 18.686V36.332C38.3585 36.9052 38.8194 37.248 39.2742 37.248H42.6389C44.634 37.248 46.305 35.5695 46.4094 33.481ZM42.6389 35.518H40.0879V19.5H42.6389C43.8072 19.5 44.6801 20.3732 44.6801 21.542V33.476C44.6801 34.6417 43.7083 35.518 42.6389 35.518Z" fill="white" stroke="white" stroke-width="0.2"/>
<path d="M50.488 31.1348L50.4881 31.1348V31.13V23.582C50.4881 21.4868 48.812 19.81 46.7175 19.81H45.596C45.0229 19.81 44.6803 20.2712 44.6803 20.726C44.6803 21.2992 45.1412 21.642 45.596 21.642H46.7175C47.8858 21.642 48.7587 22.5152 48.7587 23.684V31.232C48.7587 32.3978 47.7869 33.274 46.7175 33.274H45.596C45.0229 33.274 44.6803 33.7352 44.6803 34.19C44.6803 34.7632 45.1412 35.106 45.596 35.106H46.7175C48.7175 35.106 50.384 33.3203 50.488 31.1348Z" fill="white" stroke="white" stroke-width="0.2"/>
</svg>
