<svg width="33" height="30" viewBox="0 0 33 30" fill="none" xmlns="http://www.w3.org/2000/svg">
<path d="M25.4913 24.7602H31.2591C31.9688 24.7602 32.5495 24.1778 32.5495 23.4779V9.82378C32.5495 9.11176 31.9691 8.5291 31.2591 8.5291H23.4571C23.082 8.5291 22.7869 8.82548 22.7869 9.20144C22.7869 9.5774 23.082 9.87378 23.4571 9.87378H31.2091V23.4155H25.4913C25.1163 23.4155 24.8211 23.7119 24.8211 24.0878C24.8211 24.4638 25.1163 24.7602 25.4913 24.7602Z" fill="#555555" stroke="#555754" stroke-width="0.1"/>
<path d="M1.4899 24.7602H6.9848C7.34549 24.7602 7.65499 24.4782 7.65499 24.1003C7.65499 23.7243 7.35988 23.4279 6.9848 23.4279H1.5399V9.87378H25.0901C25.4652 9.87378 25.7603 9.5774 25.7603 9.20144C25.7603 8.82548 25.4652 8.5291 25.0901 8.5291H1.4899C0.779908 8.5291 0.199512 9.11176 0.199512 9.82378V23.4655C0.199512 24.1775 0.779908 24.7602 1.4899 24.7602Z" fill="#555555" stroke="#555754" stroke-width="0.1"/>
<path d="M25.3917 8.57904C25.3917 8.955 25.6868 9.25138 26.0619 9.25138C26.4239 9.25138 26.7326 8.94305 26.7197 8.57815V1.99468C26.7197 1.28266 26.1393 0.7 25.4293 0.7H7.30728C6.59729 0.7 6.01689 1.28266 6.01689 1.99468V8.57904C6.01689 8.955 6.312 9.25138 6.68709 9.25138C7.06217 9.25138 7.35728 8.955 7.35728 8.57904V2.04468H25.3917V8.57904Z" fill="#555555" stroke="#555754" stroke-width="0.1"/>
<path d="M7.93952 28.6283L7.94048 28.6285V28.6185V19.8186C7.94048 19.7777 7.94889 19.7521 7.95839 19.7317H24.8034C24.8129 19.7521 24.8213 19.7777 24.8213 19.8186V28.6185C24.8213 28.6594 24.8129 28.685 24.8034 28.7054H7.95184C7.94122 28.6878 7.933 28.661 7.93952 28.6283ZM7.87808 30.0501H24.8713C25.586 30.0501 26.1619 29.4003 26.1493 28.618V19.8186C26.1493 19.037 25.5737 18.387 24.8589 18.387H7.87808C7.16331 18.387 6.5877 19.037 6.5877 19.8186V28.6185C6.5877 29.4001 7.16331 30.0501 7.87808 30.0501Z" fill="#555555" stroke="#555754" stroke-width="0.1"/>
<path d="M15.0972 23.2666H22.1054C22.4805 23.2666 22.7756 22.9702 22.7756 22.5943C22.7756 22.2183 22.4805 21.9219 22.1054 21.9219H15.0972C14.7222 21.9219 14.4271 22.2183 14.4271 22.5943C14.4271 22.9702 14.7222 23.2666 15.0972 23.2666Z" fill="#555555" stroke="#555754" stroke-width="0.1"/>
<path d="M10.6441 23.2542H12.2938C12.6696 23.2542 12.964 22.9447 12.964 22.5818C12.964 22.2059 12.6689 21.9095 12.2938 21.9095H10.6441C10.269 21.9095 9.97393 22.2059 9.97393 22.5818C9.97393 22.9578 10.269 23.2542 10.6441 23.2542Z" fill="#555555" stroke="#555754" stroke-width="0.1"/>
<path d="M10.6441 26.5276H22.1053C22.481 26.5276 22.7755 26.2181 22.7755 25.8553C22.7755 25.4793 22.4804 25.1829 22.1053 25.1829H10.6441C10.269 25.1829 9.97393 25.4793 9.97393 25.8553C9.97393 26.2312 10.269 26.5276 10.6441 26.5276Z" fill="#555555" stroke="#555754" stroke-width="0.1"/>
</svg>
